<svg baseProfile="full" height="950" version="1.1" viewBox="0,0,1220,950" width="1220" xmlns="http://www.w3.org/2000/svg" xmlns:ev="http://www.w3.org/2001/xml-events" xmlns:xlink="http://www.w3.org/1999/xlink"><defs /><rect fill="#020617" height="950" rx="15" stroke="#334155" stroke-width="2" width="1220" x="0" y="0" /><line stroke="#475569" stroke-dasharray="8,4" stroke-width="1" x1="30" x2="1190" y1="380" y2="380" /><text fill="#94a3b8" font-size="20" font-weight="bold" text-anchor="middle" x="610.0" y="50">Customer Scope</text><text fill="#94a3b8" font-size="20" font-weight="bold" x="50" y="910">Kirloskar Scope</text><text fill="#6366f1" font-size="18" x="1000" y="910">Smart AMF Panel</text><rect fill="#1e1b4b" height="100" rx="8" stroke="#a78bfa" stroke-width="3" width="100" x="1065" y="362" /><rect fill="none" height="70" stroke="#a78bfa" stroke-width="2" width="70" x="1080" y="377" /><line stroke="#a78bfa" stroke-width="2.5" x1="1079.2857142857142" x2="1079.2857142857142" y1="350" y2="362" /><line stroke="#a78bfa" stroke-width="2.5" x1="1079.2857142857142" x2="1079.2857142857142" y1="462" y2="474" /><line stroke="#a78bfa" stroke-width="2.5" x1="1053" x2="1065" y1="376.2857142857143" y2="376.2857142857143" /><line stroke="#a78bfa" stroke-width="2.5" x1="1165" x2="1177" y1="376.2857142857143" y2="376.2857142857143" /><line stroke="#a78bfa" stroke-width="2.5" x1="1093.5714285714287" x2="1093.5714285714287" y1="350" y2="362" /><line stroke="#a78bfa" stroke-width="2.5" x1="1093.5714285714287" x2="1093.5714285714287" y1="462" y2="474" /><line stroke="#a78bfa" stroke-width="2.5" x1="1053" x2="1065" y1="390.57142857142856" y2="390.57142857142856" /><line stroke="#a78bfa" stroke-width="2.5" x1="1165" x2="1177" y1="390.57142857142856" y2="390.57142857142856" /><line stroke="#a78bfa" stroke-width="2.5" x1="1107.857142857143" x2="1107.857142857143" y1="350" y2="362" /><line stroke="#a78bfa" stroke-width="2.5" x1="1107.857142857143" x2="1107.857142857143" y1="462" y2="474" /><line stroke="#a78bfa" stroke-width="2.5" x1="1053" x2="1065" y1="404.8571428571429" y2="404.8571428571429" /><line stroke="#a78bfa" stroke-width="2.5" x1="1165" x2="1177" y1="404.8571428571429" y2="404.8571428571429" /><line stroke="#a78bfa" stroke-width="2.5" x1="1122.142857142857" x2="1122.142857142857" y1="350" y2="362" /><line stroke="#a78bfa" stroke-width="2.5" x1="1122.142857142857" x2="1122.142857142857" y1="462" y2="474" /><line stroke="#a78bfa" stroke-width="2.5" x1="1053" x2="1065" y1="419.14285714285717" y2="419.14285714285717" /><line stroke="#a78bfa" stroke-width="2.5" x1="1165" x2="1177" y1="419.14285714285717" y2="419.14285714285717" /><line stroke="#a78bfa" stroke-width="2.5" x1="1136.4285714285713" x2="1136.4285714285713" y1="350" y2="362" /><line stroke="#a78bfa" stroke-width="2.5" x1="1136.4285714285713" x2="1136.4285714285713" y1="462" y2="474" /><line stroke="#a78bfa" stroke-width="2.5" x1="1053" x2="1065" y1="433.42857142857144" y2="433.42857142857144" /><line stroke="#a78bfa" stroke-width="2.5" x1="1165" x2="1177" y1="433.42857142857144" y2="433.42857142857144" /><line stroke="#a78bfa" stroke-width="2.5" x1="1150.7142857142858" x2="1150.7142857142858" y1="350" y2="362" /><line stroke="#a78bfa" stroke-width="2.5" x1="1150.7142857142858" x2="1150.7142857142858" y1="462" y2="474" /><line stroke="#a78bfa" stroke-width="2.5" x1="1053" x2="1065" y1="447.7142857142857" y2="447.7142857142857" /><line stroke="#a78bfa" stroke-width="2.5" x1="1165" x2="1177" y1="447.7142857142857" y2="447.7142857142857" /><text fill="white" font-size="20" font-weight="bold" text-anchor="middle" x="1115.0" y="420.0">MGC</text><text fill="#cbd5e1" font-size="13" text-anchor="middle" x="1115" y="347">Auto / Manual</text><text fill="#e2e8f0" font-size="16" font-weight="bold" text-anchor="middle" x="160" y="76">250 kVA</text><circle cx="160" cy="161" fill="none" r="45" stroke="#60a5fa" stroke-width="2.5" /><text fill="#e2e8f0" font-size="15" text-anchor="middle" x="160" y="168">DG 1</text><line stroke="#e2e8f0" stroke-width="2" x1="160" x2="160" y1="206" y2="430" /><line stroke="#e2e8f0" stroke-width="2" x1="160" x2="160" y1="430" y2="462" /><line stroke="#e2e8f0" stroke-width="2" x1="160" x2="160" y1="492" y2="530" /><path d="M160,462 A14,14 0 0,0 162,492" fill="none" stroke="#10b981" stroke-width="2.5" /><text fill="#e2e8f0" font-family="Arial" font-size="12" text-anchor="end" x="135" y="475">500 A, 4pole,</text><text fill="#94a3b8" font-family="Arial" font-size="11" text-anchor="end" x="135" y="492">Motorised MCCB</text><text fill="#e2e8f0" font-family="Arial" font-size="14" font-weight="bold" text-anchor="start" x="195" y="485">I/C 1</text><line stroke="#e2e8f0" stroke-width="2" x1="160" x2="160" y1="530" y2="551" /><text fill="#e2e8f0" font-size="16" font-weight="bold" text-anchor="middle" x="410" y="76">250 kVA</text><circle cx="410" cy="161" fill="none" r="45" stroke="#60a5fa" stroke-width="2.5" /><text fill="#e2e8f0" font-size="15" text-anchor="middle" x="410" y="168">DG 2</text><line stroke="#e2e8f0" stroke-width="2" x1="410" x2="410" y1="206" y2="430" /><line stroke="#e2e8f0" stroke-width="2" x1="410" x2="410" y1="430" y2="462" /><line stroke="#e2e8f0" stroke-width="2" x1="410" x2="410" y1="492" y2="530" /><path d="M410,462 A14,14 0 0,0 412,492" fill="none" stroke="#10b981" stroke-width="2.5" /><text fill="#e2e8f0" font-family="Arial" font-size="12" text-anchor="end" x="385" y="475">500 A, 4pole,</text><text fill="#94a3b8" font-family="Arial" font-size="11" text-anchor="end" x="385" y="492">Motorised MCCB</text><text fill="#e2e8f0" font-family="Arial" font-size="14" font-weight="bold" text-anchor="start" x="445" y="485">I/C 2</text><line stroke="#e2e8f0" stroke-width="2" x1="410" x2="410" y1="530" y2="551" /><text fill="#e2e8f0" font-size="16" font-weight="bold" text-anchor="middle" x="660" y="76">120 kW</text><line stroke="#e2e8f0" stroke-width="2" x1="660" x2="635" y1="126" y2="221" /><line stroke="#e2e8f0" stroke-width="2" x1="660" x2="685" y1="126" y2="221" /><line stroke="#e2e8f0" stroke-width="2" x1="635" x2="685" y1="221" y2="221" /><line stroke="#e2e8f0" stroke-width="2" x1="642" x2="678" y1="146" y2="146" /><line stroke="#e2e8f0" stroke-width="1.2" x1="642" x2="642" y1="146" y2="154" /><line stroke="#e2e8f0" stroke-width="1.2" x1="678" x2="678" y1="146" y2="154" /><line stroke="#e2e8f0" stroke-width="2" x1="632" x2="688" y1="171" y2="171" /><line stroke="#e2e8f0" stroke-width="1.2" x1="632" x2="632" y1="171" y2="179" /><line stroke="#e2e8f0" stroke-width="1.2" x1="688" x2="688" y1="171" y2="179" /><line stroke="#e2e8f0" stroke-width="2" x1="636" x2="684" y1="196" y2="196" /><line stroke="#e2e8f0" stroke-width="1.2" x1="636" x2="636" y1="196" y2="204" /><line stroke="#e2e8f0" stroke-width="1.2" x1="684" x2="684" y1="196" y2="204" /><line stroke="#e2e8f0" stroke-opacity="0.4" stroke-width="0.8" x1="642" x2="688" y1="146" y2="171" /><line stroke="#e2e8f0" stroke-opacity="0.4" stroke-width="0.8" x1="678" x2="632" y1="146" y2="171" /><line stroke="#e2e8f0" stroke-opacity="0.4" stroke-width="0.8" x1="632" x2="684" y1="171" y2="196" /><line stroke="#e2e8f0" stroke-opacity="0.4" stroke-width="0.8" x1="688" x2="636" y1="171" y2="196" /><line stroke="#e2e8f0" stroke-width="2" x1="660" x2="660" y1="191" y2="430" /><line stroke="#e2e8f0" stroke-width="2" x1="660" x2="660" y1="430" y2="462" /><line stroke="#e2e8f0" stroke-width="2" x1="660" x2="660" y1="492" y2="530" /><path d="M660,462 A14,14 0 0,0 662,492" fill="none" stroke="#10b981" stroke-width="2.5" /><text fill="#e2e8f0" font-family="Arial" font-size="12" text-anchor="end" x="635" y="475">315 A, 4pole,</text><text fill="#94a3b8" font-family="Arial" font-size="11" text-anchor="end" x="635" y="492">Motorised MCCB</text><text fill="#e2e8f0" font-family="Arial" font-size="14" font-weight="bold" text-anchor="start" x="695" y="485">I/C 3</text><line stroke="#e2e8f0" stroke-width="2" x1="660" x2="660" y1="530" y2="551" /><text fill="#e2e8f0" font-size="16" font-weight="bold" text-anchor="middle" x="910" y="76">100 kWp</text><path d="M890,186 L930,186 L940,151 L880,151 Z" fill="#1e293b" stroke="#e2e8f0" stroke-width="2" /><line stroke="#e2e8f0" stroke-opacity="0.4" x1="882.5" x2="937.5" y1="159.75" y2="159.75" /><line stroke="#e2e8f0" stroke-opacity="0.4" x1="885.0" x2="935.0" y1="168.5" y2="168.5" /><line stroke="#e2e8f0" stroke-opacity="0.4" x1="887.5" x2="932.5" y1="177.25" y2="177.25" /><line stroke="#e2e8f0" stroke-opacity="0.4" x1="910" x2="910" y1="151" y2="186" /><line stroke="#e2e8f0" stroke-opacity="0.4" x1="900" x2="902" y1="151" y2="186" /><line stroke="#e2e8f0" stroke-opacity="0.4" x1="920" x2="918" y1="151" y2="186" /><circle cx="885" cy="126" fill="none" r="10" stroke="#fbbf24" stroke-width="2.5" /><line stroke="#fbbf24" stroke-width="1.5" x1="897.0" x2="902.0" y1="126.0" y2="126.0" /><line stroke="#fbbf24" stroke-width="1.5" x1="893.4852813742385" x2="897.0208152801713" y1="134.48528137423858" y2="138.02081528017132" /><line stroke="#fbbf24" stroke-width="1.5" x1="885.0" x2="885.0" y1="138.0" y2="143.0" /><line stroke="#fbbf24" stroke-width="1.5" x1="876.5147186257615" x2="872.9791847198287" y1="134.48528137423858" y2="138.02081528017132" /><line stroke="#fbbf24" stroke-width="1.5" x1="873.0" x2="868.0" y1="126.0" y2="126.0" /><line stroke="#fbbf24" stroke-width="1.5" x1="876.5147186257615" x2="872.9791847198287" y1="117.51471862576143" y2="113.9791847198287" /><line stroke="#fbbf24" stroke-width="1.5" x1="885.0" x2="885.0" y1="114.0" y2="109.0" /><line stroke="#fbbf24" stroke-width="1.5" x1="893.4852813742385" x2="897.0208152801713" y1="117.51471862576143" y2="113.9791847198287" /><line stroke="#e2e8f0" stroke-width="2" x1="910" x2="910" y1="186" y2="430" /><line stroke="#e2e8f0" stroke-width="2" x1="910" x2="910" y1="430" y2="462" /><line stroke="#e2e8f0" stroke-width="2" x1="910" x2="910" y1="492" y2="530" /><path d="M910,462 A14,14 0 0,0 912,492" fill="none" stroke="#10b981" stroke-width="2.5" /><text fill="#e2e8f0" font-family="Arial" font-size="12" text-anchor="end" x="885" y="475">250 A, 4pole,</text><text fill="#94a3b8" font-family="Arial" font-size="11" text-anchor="end" x="885" y="492">Motorised MCCB</text><text fill="#e2e8f0" font-family="Arial" font-size="14" font-weight="bold" text-anchor="start" x="945" y="485">I/C 4</text><line stroke="#e2e8f0" stroke-width="2" x1="910" x2="910" y1="530" y2="551" /><line stroke="#ef4444" stroke-width="7" x1="40" x2="1180" y1="551" y2="551" /><line stroke="#e2e8f0" stroke-width="1.5" x1="60" x2="68" y1="563" y2="539" /><line stroke="#e2e8f0" stroke-width="1.5" x1="67" x2="75" y1="563" y2="539" /><line stroke="#e2e8f0" stroke-width="1.5" x1="74" x2="82" y1="563" y2="539" /><line stroke="#e2e8f0" stroke-width="1.5" x1="81" x2="89" y1="563" y2="539" /><text fill="#f87171" font-size="13" text-anchor="end" x="1170" y="539">1078.2A</text><line stroke="#a78bfa" stroke-dasharray="6,3" stroke-width="1.2" x1="160" x2="1053" y1="405" y2="405" /><line stroke="#a78bfa" stroke-dasharray="4,2" stroke-width="1" x1="160" x2="160" y1="405" y2="430" /><line stroke="#a78bfa" stroke-dasharray="4,2" stroke-width="1" x1="410" x2="410" y1="405" y2="430" /><line stroke="#a78bfa" stroke-dasharray="4,2" stroke-width="1" x1="660" x2="660" y1="405" y2="430" /><line stroke="#a78bfa" stroke-dasharray="4,2" stroke-width="1" x1="910" x2="910" y1="405" y2="430" /><line stroke="#a78bfa" stroke-dasharray="6,3" stroke-width="1.2" x1="285.0" x2="1107.857142857143" y1="711" y2="711" /><line stroke="#a78bfa" stroke-dasharray="6,3" stroke-width="1.2" x1="1107.857142857143" x2="1107.857142857143" y1="474" y2="711" /><line stroke="#a78bfa" stroke-dasharray="4,2" stroke-width="1" x1="285.0" x2="285.0" y1="711" y2="676" /><line stroke="#a78bfa" stroke-dasharray="4,2" stroke-width="1" x1="535.0" x2="535.0" y1="711" y2="676" /><line stroke="#a78bfa" stroke-dasharray="4,2" stroke-width="1" x1="785.0" x2="785.0" y1="711" y2="676" /><line stroke="#e2e8f0" stroke-width="2" x1="285.0" x2="285.0" y1="551" y2="576" /><line stroke="#e2e8f0" stroke-width="2" x1="285.0" x2="285.0" y1="576" y2="608" /><line stroke="#e2e8f0" stroke-width="2" x1="285.0" x2="285.0" y1="638" y2="676" /><path d="M285.0,608 A14,14 0 0,0 287.0,638" fill="none" stroke="#10b981" stroke-width="2.5" /><text fill="#e2e8f0" font-family="Arial" font-size="12" text-anchor="start" x="310.0" y="621">400 A, 4pole,</text><text fill="#94a3b8" font-family="Arial" font-size="11" text-anchor="start" x="310.0" y="638">Motorised MCCB</text><text fill="#e2e8f0" font-family="Arial" font-size="14" font-weight="bold" text-anchor="end" x="250.0" y="631">O/G 1</text><line stroke="#e2e8f0" stroke-width="2" x1="285.0" x2="285.0" y1="676" y2="870" /><line stroke="#e2e8f0" stroke-width="2" x1="535.0" x2="535.0" y1="551" y2="576" /><line stroke="#e2e8f0" stroke-width="2" x1="535.0" x2="535.0" y1="576" y2="608" /><line stroke="#e2e8f0" stroke-width="2" x1="535.0" x2="535.0" y1="638" y2="676" /><path d="M535.0,608 A14,14 0 0,0 537.0,638" fill="none" stroke="#10b981" stroke-width="2.5" /><text fill="#e2e8f0" font-family="Arial" font-size="12" text-anchor="start" x="560.0" y="621">400 A, 4pole,</text><text fill="#94a3b8" font-family="Arial" font-size="11" text-anchor="start" x="560.0" y="638">Motorised MCCB</text><text fill="#e2e8f0" font-family="Arial" font-size="14" font-weight="bold" text-anchor="end" x="500.0" y="631">O/G 2</text><line stroke="#e2e8f0" stroke-width="2" x1="535.0" x2="535.0" y1="676" y2="870" /><line stroke="#e2e8f0" stroke-width="2" x1="785.0" x2="785.0" y1="551" y2="576" /><line stroke="#e2e8f0" stroke-width="2" x1="785.0" x2="785.0" y1="576" y2="608" /><line stroke="#e2e8f0" stroke-width="2" x1="785.0" x2="785.0" y1="638" y2="676" /><path d="M785.0,608 A14,14 0 0,0 787.0,638" fill="none" stroke="#10b981" stroke-width="2.5" /><text fill="#e2e8f0" font-family="Arial" font-size="12" text-anchor="start" x="810.0" y="621">250 A, 4pole,</text><text fill="#94a3b8" font-family="Arial" font-size="11" text-anchor="start" x="810.0" y="638">Motorised MCCB</text><text fill="#e2e8f0" font-family="Arial" font-size="14" font-weight="bold" text-anchor="end" x="750.0" y="631">O/G 3</text><line stroke="#e2e8f0" stroke-width="2" x1="785.0" x2="785.0" y1="676" y2="870" /><rect fill="#020617" height="24" stroke="none" width="240" x="490.0" y="393" /><text fill="#c4b5fd" font-size="13" text-anchor="middle" x="610.0" y="411">Communication and Control Lines</text><rect fill="#020617" height="24" stroke="none" width="240" x="490.0" y="699" /><text fill="#c4b5fd" font-size="13" text-anchor="middle" x="610.0" y="717">Communication and Control Lines</text></svg>