<svg baseProfile="full" height="800" version="1.1" viewBox="0,0,1250,800" width="1250" xmlns="http://www.w3.org/2000/svg" xmlns:ev="http://www.w3.org/2001/xml-events" xmlns:xlink="http://www.w3.org/1999/xlink"><defs /><rect fill="#ffffff" height="800" stroke="#cbd5e1" stroke-width="1" width="1250" x="0" y="0" /><rect fill="none" height="630" stroke="black" stroke-width="2" width="140" x="60" y="100" /><rect fill="#334155" height="105" stroke="black" width="140" x="60" y="730" /><circle cx="80" cy="92" fill="none" r="6" stroke="black" stroke-width="1.5" /><rect fill="white" height="4" stroke="black" width="16" x="72" y="96" /><circle cx="180" cy="92" fill="none" r="6" stroke="black" stroke-width="1.5" /><rect fill="white" height="4" stroke="black" width="16" x="172" y="96" /><line stroke="#64748b" stroke-width="0.5" x1="70" x2="190" y1="140" y2="140" /><line stroke="#64748b" stroke-width="0.5" x1="70" x2="190" y1="145" y2="145" /><line stroke="#64748b" stroke-width="0.5" x1="70" x2="190" y1="150" y2="150" /><line stroke="#64748b" stroke-width="0.5" x1="70" x2="190" y1="155" y2="155" /><line stroke="#64748b" stroke-width="0.5" x1="70" x2="190" y1="160" y2="160" /><line stroke="#64748b" stroke-width="0.5" x1="70" x2="190" y1="165" y2="165" /><text font-size="12" font-weight="bold" text-anchor="middle" x="130.0" y="860">LH SIDE ELEVATION</text><rect fill="none" height="630" stroke="black" stroke-width="2.5" width="630" x="280" y="100" /><line stroke="black" stroke-width="1.5" x1="595.0" x2="595.0" y1="100" y2="730" /><rect fill="#334155" height="105" stroke="black" width="630" x="280" y="730" /><circle cx="300" cy="92" fill="none" r="6" stroke="black" stroke-width="1.5" /><rect fill="white" height="4" stroke="black" width="16" x="292" y="96" /><circle cx="890" cy="92" fill="none" r="6" stroke="black" stroke-width="1.5" /><rect fill="white" height="4" stroke="black" width="16" x="882" y="96" /><rect fill="#0f172a" height="50" rx="3" stroke="#6366f1" width="70" x="402.5" y="200" /><text fill="white" font-size="12" text-anchor="middle" x="437.5" y="230">MGC</text><circle cx="712.5" cy="200" fill="red" r="6" stroke="black" /><circle cx="732.5" cy="200" fill="yellow" r="6" stroke="black" /><circle cx="752.5" cy="200" fill="blue" r="6" stroke="black" /><circle cx="772.5" cy="200" fill="green" r="6" stroke="black" /><circle cx="792.5" cy="200" fill="white" r="6" stroke="black" /><text font-size="12" font-weight="bold" text-anchor="middle" x="595.0" y="860">FRONT ELEVATION</text><rect fill="none" height="630" stroke="black" stroke-width="2" width="140" x="990" y="100" /><rect fill="#334155" height="105" stroke="black" width="140" x="990" y="730" /><circle cx="1010" cy="92" fill="none" r="6" stroke="black" stroke-width="1.5" /><rect fill="white" height="4" stroke="black" width="16" x="1002" y="96" /><circle cx="1110" cy="92" fill="none" r="6" stroke="black" stroke-width="1.5" /><rect fill="white" height="4" stroke="black" width="16" x="1102" y="96" /><line stroke="#64748b" stroke-width="0.5" x1="1000" x2="1120" y1="140" y2="140" /><line stroke="#64748b" stroke-width="0.5" x1="1000" x2="1120" y1="145" y2="145" /><line stroke="#64748b" stroke-width="0.5" x1="1000" x2="1120" y1="150" y2="150" /><line stroke="#64748b" stroke-width="0.5" x1="1000" x2="1120" y1="155" y2="155" /><line stroke="#64748b" stroke-width="0.5" x1="1000" x2="1120" y1="160" y2="160" /><line stroke="#64748b" stroke-width="0.5" x1="1000" x2="1120" y1="165" y2="165" /><text font-size="12" font-weight="bold" text-anchor="middle" x="1060.0" y="860">RH SIDE ELEVATION</text><line stroke="black" stroke-width="0.8" x1="60" x2="200" y1="55" y2="55" /><line stroke="black" stroke-width="0.8" x1="60" x2="60" y1="50" y2="60" /><line stroke="black" stroke-width="0.8" x1="200" x2="200" y1="50" y2="60" /><text font-size="10" text-anchor="middle" x="130.0" y="47">400mm</text><line stroke="black" stroke-width="0.8" x1="280" x2="910" y1="55" y2="55" /><line stroke="black" stroke-width="0.8" x1="280" x2="280" y1="50" y2="60" /><line stroke="black" stroke-width="0.8" x1="910" x2="910" y1="50" y2="60" /><text font-size="10" text-anchor="middle" x="595.0" y="47">1800mm</text><line stroke="black" stroke-width="0.8" x1="990" x2="1130" y1="55" y2="55" /><line stroke="black" stroke-width="0.8" x1="990" x2="990" y1="50" y2="60" /><line stroke="black" stroke-width="0.8" x1="1130" x2="1130" y1="50" y2="60" /><text font-size="10" text-anchor="middle" x="1060.0" y="47">400mm</text><rect fill="none" height="150" stroke="black" width="320" x="900" y="620" /><text font-size="12" font-weight="bold" x="910" y="645">PROJECT: MICROGRID SYSTEM</text><text font-size="11" x="910" y="670">PANEL SIZE: 1800x1800x400</text><text font-size="11" x="910" y="695">MATERIAL: Aluminium</text><text font-size="11" x="910" y="720">BUSBAR: 1 Set (110 x 20 mm Aluminium)</text><text fill="#19988b" font-size="12" font-weight="bold" x="910" y="750">GENERAL ARRANGEMENT DRAWING</text><text fill="#94a3b8" font-size="14" text-anchor="middle" x="20.0" y="25">0</text><text fill="#94a3b8" font-size="14" text-anchor="middle" x="141.0" y="25">1</text><text fill="#94a3b8" font-size="14" text-anchor="middle" x="262.0" y="25">2</text><text fill="#94a3b8" font-size="14" text-anchor="middle" x="383.0" y="25">3</text><text fill="#94a3b8" font-size="14" text-anchor="middle" x="504.0" y="25">4</text><text fill="#94a3b8" font-size="14" text-anchor="middle" x="625.0" y="25">5</text><text fill="#94a3b8" font-size="14" text-anchor="middle" x="746.0" y="25">6</text><text fill="#94a3b8" font-size="14" text-anchor="middle" x="867.0" y="25">7</text><text fill="#94a3b8" font-size="14" text-anchor="middle" x="988.0" y="25">8</text><text fill="#94a3b8" font-size="14" text-anchor="middle" x="1109.0" y="25">9</text><text fill="#94a3b8" font-size="14" text-anchor="middle" x="1230.0" y="25">10</text></svg>