<svg baseProfile="full" height="940" version="1.1" viewBox="0,0,1500,940" width="1500" xmlns="http://www.w3.org/2000/svg" xmlns:ev="http://www.w3.org/2001/xml-events" xmlns:xlink="http://www.w3.org/1999/xlink"><defs><clipPath id="cl_120_790_420"><rect height="93.41176470588235" width="420.35294117647055" x="120" y="790.5882352941176" /></clipPath><clipPath id="cl_148_617_363"><rect height="70.05882352941177" width="363.6470588235294" x="148.35294117647058" y="617.3094117647058" /></clipPath><clipPath id="cl_610_790_140"><rect height="93.41176470588235" width="140.0" x="610.3529411764705" y="790.5882352941176" /></clipPath></defs><rect fill="#0a0f1e" height="940" width="1500" x="0" y="0" /><line stroke="#1e3252" stroke-dasharray="3,5" stroke-width="0.4" x1="120.0" x2="120.0" y1="62" y2="891.9999999999999" /><line stroke="#1e3252" stroke-dasharray="3,5" stroke-width="0.4" x1="225.08823529411762" x2="225.08823529411762" y1="62" y2="891.9999999999999" /><line stroke="#1e3252" stroke-dasharray="3,5" stroke-width="0.4" x1="330.17647058823525" x2="330.17647058823525" y1="62" y2="891.9999999999999" /><line stroke="#1e3252" stroke-dasharray="3,5" stroke-width="0.4" x1="435.2647058823529" x2="435.2647058823529" y1="62" y2="891.9999999999999" /><line stroke="#1e3252" stroke-dasharray="3,5" stroke-width="0.4" x1="540.3529411764705" x2="540.3529411764705" y1="62" y2="891.9999999999999" /><text fill="#94a3b8" font-family="Arial" font-size="9" text-anchor="middle" x="172.5441176470588" y="58">0</text><text fill="#94a3b8" font-family="Arial" font-size="9" text-anchor="middle" x="277.63235294117646" y="58">1</text><text fill="#94a3b8" font-family="Arial" font-size="9" text-anchor="middle" x="382.7205882352941" y="58">2</text><text fill="#94a3b8" font-family="Arial" font-size="9" text-anchor="middle" x="487.8088235294117" y="58">3</text><rect fill="#08121f" height="93.41176470588235" stroke="#4a9eca" stroke-width="1.5" width="420.35294117647055" x="120" y="790.5882352941176" /><g clip-path="url(#cl_120_790_420)"><line stroke="#1e4080" stroke-opacity="0.4" stroke-width="0.7" x1="-393" x2="-299.5882352941177" y1="790.5882352941176" y2="883.9999999999999" /><line stroke="#1e4080" stroke-opacity="0.4" stroke-width="0.7" x1="-381" x2="-287.5882352941177" y1="790.5882352941176" y2="883.9999999999999" /><line stroke="#1e4080" stroke-opacity="0.4" stroke-width="0.7" x1="-369" x2="-275.5882352941177" y1="790.5882352941176" y2="883.9999999999999" /><line stroke="#1e4080" stroke-opacity="0.4" stroke-width="0.7" x1="-357" x2="-263.5882352941177" y1="790.5882352941176" y2="883.9999999999999" /><line stroke="#1e4080" stroke-opacity="0.4" stroke-width="0.7" x1="-345" x2="-251.58823529411765" y1="790.5882352941176" y2="883.9999999999999" /><line stroke="#1e4080" stroke-opacity="0.4" stroke-width="0.7" x1="-333" x2="-239.58823529411765" y1="790.5882352941176" y2="883.9999999999999" /><line stroke="#1e4080" stroke-opacity="0.4" stroke-width="0.7" x1="-321" x2="-227.58823529411765" y1="790.5882352941176" y2="883.9999999999999" /><line stroke="#1e4080" stroke-opacity="0.4" stroke-width="0.7" x1="-309" x2="-215.58823529411765" y1="790.5882352941176" y2="883.9999999999999" /><line stroke="#1e4080" stroke-opacity="0.4" stroke-width="0.7" x1="-297" x2="-203.58823529411765" y1="790.5882352941176" y2="883.9999999999999" /><line stroke="#1e4080" stroke-opacity="0.4" stroke-width="0.7" x1="-285" x2="-191.58823529411765" y1="790.5882352941176" y2="883.9999999999999" /><line stroke="#1e4080" stroke-opacity="0.4" stroke-width="0.7" x1="-273" x2="-179.58823529411765" y1="790.5882352941176" y2="883.9999999999999" /><line stroke="#1e4080" stroke-opacity="0.4" stroke-width="0.7" x1="-261" x2="-167.58823529411765" y1="790.5882352941176" y2="883.9999999999999" /><line stroke="#1e4080" stroke-opacity="0.4" stroke-width="0.7" x1="-249" x2="-155.58823529411765" y1="790.5882352941176" y2="883.9999999999999" /><line stroke="#1e4080" stroke-opacity="0.4" stroke-width="0.7" x1="-237" x2="-143.58823529411765" y1="790.5882352941176" y2="883.9999999999999" /><line stroke="#1e4080" stroke-opacity="0.4" stroke-width="0.7" x1="-225" x2="-131.58823529411765" y1="790.5882352941176" y2="883.9999999999999" /><line stroke="#1e4080" stroke-opacity="0.4" stroke-width="0.7" x1="-213" x2="-119.58823529411765" y1="790.5882352941176" y2="883.9999999999999" /><line stroke="#1e4080" stroke-opacity="0.4" stroke-width="0.7" x1="-201" x2="-107.58823529411765" y1="790.5882352941176" y2="883.9999999999999" /><line stroke="#1e4080" stroke-opacity="0.4" stroke-width="0.7" x1="-189" x2="-95.58823529411765" y1="790.5882352941176" y2="883.9999999999999" /><line stroke="#1e4080" stroke-opacity="0.4" stroke-width="0.7" x1="-177" x2="-83.58823529411765" y1="790.5882352941176" y2="883.9999999999999" /><line stroke="#1e4080" stroke-opacity="0.4" stroke-width="0.7" x1="-165" x2="-71.58823529411765" y1="790.5882352941176" y2="883.9999999999999" /><line stroke="#1e4080" stroke-opacity="0.4" stroke-width="0.7" x1="-153" x2="-59.58823529411765" y1="790.5882352941176" y2="883.9999999999999" /><line stroke="#1e4080" stroke-opacity="0.4" stroke-width="0.7" x1="-141" x2="-47.58823529411765" y1="790.5882352941176" y2="883.9999999999999" /><line stroke="#1e4080" stroke-opacity="0.4" stroke-width="0.7" x1="-129" x2="-35.58823529411765" y1="790.5882352941176" y2="883.9999999999999" /><line stroke="#1e4080" stroke-opacity="0.4" stroke-width="0.7" x1="-117" x2="-23.588235294117652" y1="790.5882352941176" y2="883.9999999999999" /><line stroke="#1e4080" stroke-opacity="0.4" stroke-width="0.7" x1="-105" x2="-11.588235294117652" y1="790.5882352941176" y2="883.9999999999999" /><line stroke="#1e4080" stroke-opacity="0.4" stroke-width="0.7" x1="-93" x2="0.4117647058823479" y1="790.5882352941176" y2="883.9999999999999" /><line stroke="#1e4080" stroke-opacity="0.4" stroke-width="0.7" x1="-81" x2="12.411764705882348" y1="790.5882352941176" y2="883.9999999999999" /><line stroke="#1e4080" stroke-opacity="0.4" stroke-width="0.7" x1="-69" x2="24.411764705882348" y1="790.5882352941176" y2="883.9999999999999" /><line stroke="#1e4080" stroke-opacity="0.4" stroke-width="0.7" x1="-57" x2="36.41176470588235" y1="790.5882352941176" y2="883.9999999999999" /><line stroke="#1e4080" stroke-opacity="0.4" stroke-width="0.7" x1="-45" x2="48.41176470588235" y1="790.5882352941176" y2="883.9999999999999" /><line stroke="#1e4080" stroke-opacity="0.4" stroke-width="0.7" x1="-33" x2="60.41176470588235" y1="790.5882352941176" y2="883.9999999999999" /><line stroke="#1e4080" stroke-opacity="0.4" stroke-width="0.7" x1="-21" x2="72.41176470588235" y1="790.5882352941176" y2="883.9999999999999" /><line stroke="#1e4080" stroke-opacity="0.4" stroke-width="0.7" x1="-9" x2="84.41176470588235" y1="790.5882352941176" y2="883.9999999999999" /><line stroke="#1e4080" stroke-opacity="0.4" stroke-width="0.7" x1="3" x2="96.41176470588235" y1="790.5882352941176" y2="883.9999999999999" /><line stroke="#1e4080" stroke-opacity="0.4" stroke-width="0.7" x1="15" x2="108.41176470588235" y1="790.5882352941176" y2="883.9999999999999" /><line stroke="#1e4080" stroke-opacity="0.4" stroke-width="0.7" x1="27" x2="120.41176470588235" y1="790.5882352941176" y2="883.9999999999999" /><line stroke="#1e4080" stroke-opacity="0.4" stroke-width="0.7" x1="39" x2="132.41176470588235" y1="790.5882352941176" y2="883.9999999999999" /><line stroke="#1e4080" stroke-opacity="0.4" stroke-width="0.7" x1="51" x2="144.41176470588235" y1="790.5882352941176" y2="883.9999999999999" /><line stroke="#1e4080" stroke-opacity="0.4" stroke-width="0.7" x1="63" x2="156.41176470588235" y1="790.5882352941176" y2="883.9999999999999" /><line stroke="#1e4080" stroke-opacity="0.4" stroke-width="0.7" x1="75" x2="168.41176470588235" y1="790.5882352941176" y2="883.9999999999999" /><line stroke="#1e4080" stroke-opacity="0.4" stroke-width="0.7" x1="87" x2="180.41176470588235" y1="790.5882352941176" y2="883.9999999999999" /><line stroke="#1e4080" stroke-opacity="0.4" stroke-width="0.7" x1="99" x2="192.41176470588235" y1="790.5882352941176" y2="883.9999999999999" /><line stroke="#1e4080" stroke-opacity="0.4" stroke-width="0.7" x1="111" x2="204.41176470588235" y1="790.5882352941176" y2="883.9999999999999" /><line stroke="#1e4080" stroke-opacity="0.4" stroke-width="0.7" x1="123" x2="216.41176470588235" y1="790.5882352941176" y2="883.9999999999999" /><line stroke="#1e4080" stroke-opacity="0.4" stroke-width="0.7" x1="135" x2="228.41176470588235" y1="790.5882352941176" y2="883.9999999999999" /><line stroke="#1e4080" stroke-opacity="0.4" stroke-width="0.7" x1="147" x2="240.41176470588235" y1="790.5882352941176" y2="883.9999999999999" /><line stroke="#1e4080" stroke-opacity="0.4" stroke-width="0.7" x1="159" x2="252.41176470588235" y1="790.5882352941176" y2="883.9999999999999" /><line stroke="#1e4080" stroke-opacity="0.4" stroke-width="0.7" x1="171" x2="264.4117647058823" y1="790.5882352941176" y2="883.9999999999999" /><line stroke="#1e4080" stroke-opacity="0.4" stroke-width="0.7" x1="183" x2="276.4117647058823" y1="790.5882352941176" y2="883.9999999999999" /><line stroke="#1e4080" stroke-opacity="0.4" stroke-width="0.7" x1="195" x2="288.4117647058823" y1="790.5882352941176" y2="883.9999999999999" /><line stroke="#1e4080" stroke-opacity="0.4" stroke-width="0.7" x1="207" x2="300.4117647058823" y1="790.5882352941176" y2="883.9999999999999" /><line stroke="#1e4080" stroke-opacity="0.4" stroke-width="0.7" x1="219" x2="312.4117647058823" y1="790.5882352941176" y2="883.9999999999999" /><line stroke="#1e4080" stroke-opacity="0.4" stroke-width="0.7" x1="231" x2="324.4117647058823" y1="790.5882352941176" y2="883.9999999999999" /><line stroke="#1e4080" stroke-opacity="0.4" stroke-width="0.7" x1="243" x2="336.4117647058823" y1="790.5882352941176" y2="883.9999999999999" /><line stroke="#1e4080" stroke-opacity="0.4" stroke-width="0.7" x1="255" x2="348.4117647058823" y1="790.5882352941176" y2="883.9999999999999" /><line stroke="#1e4080" stroke-opacity="0.4" stroke-width="0.7" x1="267" x2="360.4117647058823" y1="790.5882352941176" y2="883.9999999999999" /><line stroke="#1e4080" stroke-opacity="0.4" stroke-width="0.7" x1="279" x2="372.4117647058823" y1="790.5882352941176" y2="883.9999999999999" /><line stroke="#1e4080" stroke-opacity="0.4" stroke-width="0.7" x1="291" x2="384.4117647058823" y1="790.5882352941176" y2="883.9999999999999" /><line stroke="#1e4080" stroke-opacity="0.4" stroke-width="0.7" x1="303" x2="396.4117647058823" y1="790.5882352941176" y2="883.9999999999999" /><line stroke="#1e4080" stroke-opacity="0.4" stroke-width="0.7" x1="315" x2="408.4117647058823" y1="790.5882352941176" y2="883.9999999999999" /><line stroke="#1e4080" stroke-opacity="0.4" stroke-width="0.7" x1="327" x2="420.4117647058823" y1="790.5882352941176" y2="883.9999999999999" /><line stroke="#1e4080" stroke-opacity="0.4" stroke-width="0.7" x1="339" x2="432.4117647058823" y1="790.5882352941176" y2="883.9999999999999" /><line stroke="#1e4080" stroke-opacity="0.4" stroke-width="0.7" x1="351" x2="444.4117647058823" y1="790.5882352941176" y2="883.9999999999999" /><line stroke="#1e4080" stroke-opacity="0.4" stroke-width="0.7" x1="363" x2="456.4117647058823" y1="790.5882352941176" y2="883.9999999999999" /><line stroke="#1e4080" stroke-opacity="0.4" stroke-width="0.7" x1="375" x2="468.4117647058823" y1="790.5882352941176" y2="883.9999999999999" /><line stroke="#1e4080" stroke-opacity="0.4" stroke-width="0.7" x1="387" x2="480.4117647058823" y1="790.5882352941176" y2="883.9999999999999" /><line stroke="#1e4080" stroke-opacity="0.4" stroke-width="0.7" x1="399" x2="492.4117647058823" y1="790.5882352941176" y2="883.9999999999999" /><line stroke="#1e4080" stroke-opacity="0.4" stroke-width="0.7" x1="411" x2="504.4117647058823" y1="790.5882352941176" y2="883.9999999999999" /><line stroke="#1e4080" stroke-opacity="0.4" stroke-width="0.7" x1="423" x2="516.4117647058823" y1="790.5882352941176" y2="883.9999999999999" /><line stroke="#1e4080" stroke-opacity="0.4" stroke-width="0.7" x1="435" x2="528.4117647058823" y1="790.5882352941176" y2="883.9999999999999" /><line stroke="#1e4080" stroke-opacity="0.4" stroke-width="0.7" x1="447" x2="540.4117647058823" y1="790.5882352941176" y2="883.9999999999999" /><line stroke="#1e4080" stroke-opacity="0.4" stroke-width="0.7" x1="459" x2="552.4117647058823" y1="790.5882352941176" y2="883.9999999999999" /><line stroke="#1e4080" stroke-opacity="0.4" stroke-width="0.7" x1="471" x2="564.4117647058823" y1="790.5882352941176" y2="883.9999999999999" /><line stroke="#1e4080" stroke-opacity="0.4" stroke-width="0.7" x1="483" x2="576.4117647058823" y1="790.5882352941176" y2="883.9999999999999" /><line stroke="#1e4080" stroke-opacity="0.4" stroke-width="0.7" x1="495" x2="588.4117647058823" y1="790.5882352941176" y2="883.9999999999999" /><line stroke="#1e4080" stroke-opacity="0.4" stroke-width="0.7" x1="507" x2="600.4117647058823" y1="790.5882352941176" y2="883.9999999999999" /><line stroke="#1e4080" stroke-opacity="0.4" stroke-width="0.7" x1="519" x2="612.4117647058823" y1="790.5882352941176" y2="883.9999999999999" /><line stroke="#1e4080" stroke-opacity="0.4" stroke-width="0.7" x1="531" x2="624.4117647058823" y1="790.5882352941176" y2="883.9999999999999" /><line stroke="#1e4080" stroke-opacity="0.4" stroke-width="0.7" x1="543" x2="636.4117647058823" y1="790.5882352941176" y2="883.9999999999999" /><line stroke="#1e4080" stroke-opacity="0.4" stroke-width="0.7" x1="555" x2="648.4117647058823" y1="790.5882352941176" y2="883.9999999999999" /><line stroke="#1e4080" stroke-opacity="0.4" stroke-width="0.7" x1="567" x2="660.4117647058823" y1="790.5882352941176" y2="883.9999999999999" /><line stroke="#1e4080" stroke-opacity="0.4" stroke-width="0.7" x1="579" x2="672.4117647058823" y1="790.5882352941176" y2="883.9999999999999" /><line stroke="#1e4080" stroke-opacity="0.4" stroke-width="0.7" x1="591" x2="684.4117647058823" y1="790.5882352941176" y2="883.9999999999999" /><line stroke="#1e4080" stroke-opacity="0.4" stroke-width="0.7" x1="603" x2="696.4117647058823" y1="790.5882352941176" y2="883.9999999999999" /><line stroke="#1e4080" stroke-opacity="0.4" stroke-width="0.7" x1="615" x2="708.4117647058823" y1="790.5882352941176" y2="883.9999999999999" /><line stroke="#1e4080" stroke-opacity="0.4" stroke-width="0.7" x1="627" x2="720.4117647058823" y1="790.5882352941176" y2="883.9999999999999" /></g><rect fill="#1a2e4a" height="700.5882352941176" stroke="#4a9eca" stroke-width="2.5" width="420.35294117647055" x="120" y="90" /><rect fill="none" height="680.5882352941176" stroke="#2563eb" stroke-dasharray="8,5" stroke-width="0.9" width="400.35294117647055" x="130" y="100" /><rect fill="#0d1f36" height="653.8823529411765" stroke="#3b82f6" stroke-dasharray="6,4" stroke-width="1.1" width="373.6470588235294" x="143.35294117647058" y="113.35294117647055" /><line stroke="#2563eb" stroke-dasharray="5,3" stroke-width="0.7" x1="148.35294117647058" x2="512.0" y1="309.5176470588235" y2="309.5176470588235" /><rect fill="#7f1d1d" height="93.41176470588235" rx="2" stroke="#ef4444" stroke-width="1.2" width="363.6470588235294" x="148.35294117647058" y="337.5411764705882" /><text fill="#fca5a5" font-family="Arial" font-size="10" font-weight="bold" text-anchor="middle" x="330.17647058823525" y="388.24705882352936">Busbar Chamber — 200 mm</text><line stroke="#2563eb" stroke-dasharray="5,3" stroke-width="0.7" x1="148.35294117647058" x2="512.0" y1="430.9529411764705" y2="430.9529411764705" /><line stroke="#2563eb" stroke-dasharray="5,3" stroke-width="0.7" x1="148.35294117647058" x2="512.0" y1="617.3094117647058" y2="617.3094117647058" /><g clip-path="url(#cl_148_617_363)"><line stroke="#1e4080" stroke-opacity="0.4" stroke-width="0.7" x1="-284.6470588235294" x2="-214.58823529411762" y1="617.3094117647058" y2="687.3682352941175" /><line stroke="#1e4080" stroke-opacity="0.4" stroke-width="0.7" x1="-276.6470588235294" x2="-206.58823529411762" y1="617.3094117647058" y2="687.3682352941175" /><line stroke="#1e4080" stroke-opacity="0.4" stroke-width="0.7" x1="-268.6470588235294" x2="-198.58823529411762" y1="617.3094117647058" y2="687.3682352941175" /><line stroke="#1e4080" stroke-opacity="0.4" stroke-width="0.7" x1="-260.6470588235294" x2="-190.58823529411762" y1="617.3094117647058" y2="687.3682352941175" /><line stroke="#1e4080" stroke-opacity="0.4" stroke-width="0.7" x1="-252.64705882352942" x2="-182.58823529411765" y1="617.3094117647058" y2="687.3682352941175" /><line stroke="#1e4080" stroke-opacity="0.4" stroke-width="0.7" x1="-244.64705882352942" x2="-174.58823529411765" y1="617.3094117647058" y2="687.3682352941175" /><line stroke="#1e4080" stroke-opacity="0.4" stroke-width="0.7" x1="-236.64705882352942" x2="-166.58823529411765" y1="617.3094117647058" y2="687.3682352941175" /><line stroke="#1e4080" stroke-opacity="0.4" stroke-width="0.7" x1="-228.64705882352942" x2="-158.58823529411765" y1="617.3094117647058" y2="687.3682352941175" /><line stroke="#1e4080" stroke-opacity="0.4" stroke-width="0.7" x1="-220.64705882352942" x2="-150.58823529411765" y1="617.3094117647058" y2="687.3682352941175" /><line stroke="#1e4080" stroke-opacity="0.4" stroke-width="0.7" x1="-212.64705882352942" x2="-142.58823529411765" y1="617.3094117647058" y2="687.3682352941175" /><line stroke="#1e4080" stroke-opacity="0.4" stroke-width="0.7" x1="-204.64705882352942" x2="-134.58823529411765" y1="617.3094117647058" y2="687.3682352941175" /><line stroke="#1e4080" stroke-opacity="0.4" stroke-width="0.7" x1="-196.64705882352942" x2="-126.58823529411765" y1="617.3094117647058" y2="687.3682352941175" /><line stroke="#1e4080" stroke-opacity="0.4" stroke-width="0.7" x1="-188.64705882352942" x2="-118.58823529411765" y1="617.3094117647058" y2="687.3682352941175" /><line stroke="#1e4080" stroke-opacity="0.4" stroke-width="0.7" x1="-180.64705882352942" x2="-110.58823529411765" y1="617.3094117647058" y2="687.3682352941175" /><line stroke="#1e4080" stroke-opacity="0.4" stroke-width="0.7" x1="-172.64705882352942" x2="-102.58823529411765" y1="617.3094117647058" y2="687.3682352941175" /><line stroke="#1e4080" stroke-opacity="0.4" stroke-width="0.7" x1="-164.64705882352942" x2="-94.58823529411765" y1="617.3094117647058" y2="687.3682352941175" /><line stroke="#1e4080" stroke-opacity="0.4" stroke-width="0.7" x1="-156.64705882352942" x2="-86.58823529411765" y1="617.3094117647058" y2="687.3682352941175" /><line stroke="#1e4080" stroke-opacity="0.4" stroke-width="0.7" x1="-148.64705882352942" x2="-78.58823529411765" y1="617.3094117647058" y2="687.3682352941175" /><line stroke="#1e4080" stroke-opacity="0.4" stroke-width="0.7" x1="-140.64705882352942" x2="-70.58823529411765" y1="617.3094117647058" y2="687.3682352941175" /><line stroke="#1e4080" stroke-opacity="0.4" stroke-width="0.7" x1="-132.64705882352942" x2="-62.58823529411765" y1="617.3094117647058" y2="687.3682352941175" /><line stroke="#1e4080" stroke-opacity="0.4" stroke-width="0.7" x1="-124.64705882352942" x2="-54.58823529411765" y1="617.3094117647058" y2="687.3682352941175" /><line stroke="#1e4080" stroke-opacity="0.4" stroke-width="0.7" x1="-116.64705882352942" x2="-46.58823529411765" y1="617.3094117647058" y2="687.3682352941175" /><line stroke="#1e4080" stroke-opacity="0.4" stroke-width="0.7" x1="-108.64705882352942" x2="-38.58823529411765" y1="617.3094117647058" y2="687.3682352941175" /><line stroke="#1e4080" stroke-opacity="0.4" stroke-width="0.7" x1="-100.64705882352942" x2="-30.588235294117652" y1="617.3094117647058" y2="687.3682352941175" /><line stroke="#1e4080" stroke-opacity="0.4" stroke-width="0.7" x1="-92.64705882352942" x2="-22.588235294117652" y1="617.3094117647058" y2="687.3682352941175" /><line stroke="#1e4080" stroke-opacity="0.4" stroke-width="0.7" x1="-84.64705882352942" x2="-14.588235294117652" y1="617.3094117647058" y2="687.3682352941175" /><line stroke="#1e4080" stroke-opacity="0.4" stroke-width="0.7" x1="-76.64705882352942" x2="-6.588235294117652" y1="617.3094117647058" y2="687.3682352941175" /><line stroke="#1e4080" stroke-opacity="0.4" stroke-width="0.7" x1="-68.64705882352942" x2="1.411764705882348" y1="617.3094117647058" y2="687.3682352941175" /><line stroke="#1e4080" stroke-opacity="0.4" stroke-width="0.7" x1="-60.64705882352942" x2="9.411764705882348" y1="617.3094117647058" y2="687.3682352941175" /><line stroke="#1e4080" stroke-opacity="0.4" stroke-width="0.7" x1="-52.64705882352942" x2="17.411764705882348" y1="617.3094117647058" y2="687.3682352941175" /><line stroke="#1e4080" stroke-opacity="0.4" stroke-width="0.7" x1="-44.64705882352942" x2="25.411764705882348" y1="617.3094117647058" y2="687.3682352941175" /><line stroke="#1e4080" stroke-opacity="0.4" stroke-width="0.7" x1="-36.64705882352942" x2="33.41176470588235" y1="617.3094117647058" y2="687.3682352941175" /><line stroke="#1e4080" stroke-opacity="0.4" stroke-width="0.7" x1="-28.64705882352942" x2="41.41176470588235" y1="617.3094117647058" y2="687.3682352941175" /><line stroke="#1e4080" stroke-opacity="0.4" stroke-width="0.7" x1="-20.64705882352942" x2="49.41176470588235" y1="617.3094117647058" y2="687.3682352941175" /><line stroke="#1e4080" stroke-opacity="0.4" stroke-width="0.7" x1="-12.64705882352942" x2="57.41176470588235" y1="617.3094117647058" y2="687.3682352941175" /><line stroke="#1e4080" stroke-opacity="0.4" stroke-width="0.7" x1="-4.64705882352942" x2="65.41176470588235" y1="617.3094117647058" y2="687.3682352941175" /><line stroke="#1e4080" stroke-opacity="0.4" stroke-width="0.7" x1="3.35294117647058" x2="73.41176470588235" y1="617.3094117647058" y2="687.3682352941175" /><line stroke="#1e4080" stroke-opacity="0.4" stroke-width="0.7" x1="11.35294117647058" x2="81.41176470588235" y1="617.3094117647058" y2="687.3682352941175" /><line stroke="#1e4080" stroke-opacity="0.4" stroke-width="0.7" x1="19.35294117647058" x2="89.41176470588235" y1="617.3094117647058" y2="687.3682352941175" /><line stroke="#1e4080" stroke-opacity="0.4" stroke-width="0.7" x1="27.35294117647058" x2="97.41176470588235" y1="617.3094117647058" y2="687.3682352941175" /><line stroke="#1e4080" stroke-opacity="0.4" stroke-width="0.7" x1="35.35294117647058" x2="105.41176470588235" y1="617.3094117647058" y2="687.3682352941175" /><line stroke="#1e4080" stroke-opacity="0.4" stroke-width="0.7" x1="43.35294117647058" x2="113.41176470588235" y1="617.3094117647058" y2="687.3682352941175" /><line stroke="#1e4080" stroke-opacity="0.4" stroke-width="0.7" x1="51.35294117647058" x2="121.41176470588235" y1="617.3094117647058" y2="687.3682352941175" /><line stroke="#1e4080" stroke-opacity="0.4" stroke-width="0.7" x1="59.35294117647058" x2="129.41176470588235" y1="617.3094117647058" y2="687.3682352941175" /><line stroke="#1e4080" stroke-opacity="0.4" stroke-width="0.7" x1="67.35294117647058" x2="137.41176470588235" y1="617.3094117647058" y2="687.3682352941175" /><line stroke="#1e4080" stroke-opacity="0.4" stroke-width="0.7" x1="75.35294117647058" x2="145.41176470588235" y1="617.3094117647058" y2="687.3682352941175" /><line stroke="#1e4080" stroke-opacity="0.4" stroke-width="0.7" x1="83.35294117647058" x2="153.41176470588235" y1="617.3094117647058" y2="687.3682352941175" /><line stroke="#1e4080" stroke-opacity="0.4" stroke-width="0.7" x1="91.35294117647058" x2="161.41176470588235" y1="617.3094117647058" y2="687.3682352941175" /><line stroke="#1e4080" stroke-opacity="0.4" stroke-width="0.7" x1="99.35294117647058" x2="169.41176470588235" y1="617.3094117647058" y2="687.3682352941175" /><line stroke="#1e4080" stroke-opacity="0.4" stroke-width="0.7" x1="107.35294117647058" x2="177.41176470588235" y1="617.3094117647058" y2="687.3682352941175" /><line stroke="#1e4080" stroke-opacity="0.4" stroke-width="0.7" x1="115.35294117647058" x2="185.41176470588235" y1="617.3094117647058" y2="687.3682352941175" /><line stroke="#1e4080" stroke-opacity="0.4" stroke-width="0.7" x1="123.35294117647058" x2="193.41176470588235" y1="617.3094117647058" y2="687.3682352941175" /><line stroke="#1e4080" stroke-opacity="0.4" stroke-width="0.7" x1="131.35294117647058" x2="201.41176470588235" y1="617.3094117647058" y2="687.3682352941175" /><line stroke="#1e4080" stroke-opacity="0.4" stroke-width="0.7" x1="139.35294117647058" x2="209.41176470588235" y1="617.3094117647058" y2="687.3682352941175" /><line stroke="#1e4080" stroke-opacity="0.4" stroke-width="0.7" x1="147.35294117647058" x2="217.41176470588235" y1="617.3094117647058" y2="687.3682352941175" /><line stroke="#1e4080" stroke-opacity="0.4" stroke-width="0.7" x1="155.35294117647058" x2="225.41176470588235" y1="617.3094117647058" y2="687.3682352941175" /><line stroke="#1e4080" stroke-opacity="0.4" stroke-width="0.7" x1="163.35294117647058" x2="233.41176470588235" y1="617.3094117647058" y2="687.3682352941175" /><line stroke="#1e4080" stroke-opacity="0.4" stroke-width="0.7" x1="171.35294117647058" x2="241.41176470588235" y1="617.3094117647058" y2="687.3682352941175" /><line stroke="#1e4080" stroke-opacity="0.4" stroke-width="0.7" x1="179.35294117647058" x2="249.41176470588235" y1="617.3094117647058" y2="687.3682352941175" /><line stroke="#1e4080" stroke-opacity="0.4" stroke-width="0.7" x1="187.35294117647058" x2="257.4117647058823" y1="617.3094117647058" y2="687.3682352941175" /><line stroke="#1e4080" stroke-opacity="0.4" stroke-width="0.7" x1="195.35294117647058" x2="265.4117647058823" y1="617.3094117647058" y2="687.3682352941175" /><line stroke="#1e4080" stroke-opacity="0.4" stroke-width="0.7" x1="203.35294117647058" x2="273.4117647058823" y1="617.3094117647058" y2="687.3682352941175" /><line stroke="#1e4080" stroke-opacity="0.4" stroke-width="0.7" x1="211.35294117647058" x2="281.4117647058823" y1="617.3094117647058" y2="687.3682352941175" /><line stroke="#1e4080" stroke-opacity="0.4" stroke-width="0.7" x1="219.35294117647058" x2="289.4117647058823" y1="617.3094117647058" y2="687.3682352941175" /><line stroke="#1e4080" stroke-opacity="0.4" stroke-width="0.7" x1="227.35294117647058" x2="297.4117647058823" y1="617.3094117647058" y2="687.3682352941175" /><line stroke="#1e4080" stroke-opacity="0.4" stroke-width="0.7" x1="235.35294117647058" x2="305.4117647058823" y1="617.3094117647058" y2="687.3682352941175" /><line stroke="#1e4080" stroke-opacity="0.4" stroke-width="0.7" x1="243.35294117647058" x2="313.4117647058823" y1="617.3094117647058" y2="687.3682352941175" /><line stroke="#1e4080" stroke-opacity="0.4" stroke-width="0.7" x1="251.35294117647058" x2="321.4117647058823" y1="617.3094117647058" y2="687.3682352941175" /><line stroke="#1e4080" stroke-opacity="0.4" stroke-width="0.7" x1="259.3529411764706" x2="329.4117647058824" y1="617.3094117647058" y2="687.3682352941175" /><line stroke="#1e4080" stroke-opacity="0.4" stroke-width="0.7" x1="267.3529411764706" x2="337.4117647058824" y1="617.3094117647058" y2="687.3682352941175" /><line stroke="#1e4080" stroke-opacity="0.4" stroke-width="0.7" x1="275.3529411764706" x2="345.4117647058824" y1="617.3094117647058" y2="687.3682352941175" /><line stroke="#1e4080" stroke-opacity="0.4" stroke-width="0.7" x1="283.3529411764706" x2="353.4117647058824" y1="617.3094117647058" y2="687.3682352941175" /><line stroke="#1e4080" stroke-opacity="0.4" stroke-width="0.7" x1="291.3529411764706" x2="361.4117647058824" y1="617.3094117647058" y2="687.3682352941175" /><line stroke="#1e4080" stroke-opacity="0.4" stroke-width="0.7" x1="299.3529411764706" x2="369.4117647058824" y1="617.3094117647058" y2="687.3682352941175" /><line stroke="#1e4080" stroke-opacity="0.4" stroke-width="0.7" x1="307.3529411764706" x2="377.4117647058824" y1="617.3094117647058" y2="687.3682352941175" /><line stroke="#1e4080" stroke-opacity="0.4" stroke-width="0.7" x1="315.3529411764706" x2="385.4117647058824" y1="617.3094117647058" y2="687.3682352941175" /><line stroke="#1e4080" stroke-opacity="0.4" stroke-width="0.7" x1="323.3529411764706" x2="393.4117647058824" y1="617.3094117647058" y2="687.3682352941175" /><line stroke="#1e4080" stroke-opacity="0.4" stroke-width="0.7" x1="331.3529411764706" x2="401.4117647058824" y1="617.3094117647058" y2="687.3682352941175" /><line stroke="#1e4080" stroke-opacity="0.4" stroke-width="0.7" x1="339.3529411764706" x2="409.4117647058824" y1="617.3094117647058" y2="687.3682352941175" /><line stroke="#1e4080" stroke-opacity="0.4" stroke-width="0.7" x1="347.3529411764706" x2="417.4117647058824" y1="617.3094117647058" y2="687.3682352941175" /><line stroke="#1e4080" stroke-opacity="0.4" stroke-width="0.7" x1="355.3529411764706" x2="425.4117647058824" y1="617.3094117647058" y2="687.3682352941175" /><line stroke="#1e4080" stroke-opacity="0.4" stroke-width="0.7" x1="363.3529411764706" x2="433.4117647058824" y1="617.3094117647058" y2="687.3682352941175" /><line stroke="#1e4080" stroke-opacity="0.4" stroke-width="0.7" x1="371.3529411764706" x2="441.4117647058824" y1="617.3094117647058" y2="687.3682352941175" /><line stroke="#1e4080" stroke-opacity="0.4" stroke-width="0.7" x1="379.3529411764706" x2="449.4117647058824" y1="617.3094117647058" y2="687.3682352941175" /><line stroke="#1e4080" stroke-opacity="0.4" stroke-width="0.7" x1="387.3529411764706" x2="457.4117647058824" y1="617.3094117647058" y2="687.3682352941175" /><line stroke="#1e4080" stroke-opacity="0.4" stroke-width="0.7" x1="395.3529411764706" x2="465.4117647058824" y1="617.3094117647058" y2="687.3682352941175" /><line stroke="#1e4080" stroke-opacity="0.4" stroke-width="0.7" x1="403.3529411764706" x2="473.4117647058824" y1="617.3094117647058" y2="687.3682352941175" /><line stroke="#1e4080" stroke-opacity="0.4" stroke-width="0.7" x1="411.3529411764706" x2="481.4117647058824" y1="617.3094117647058" y2="687.3682352941175" /><line stroke="#1e4080" stroke-opacity="0.4" stroke-width="0.7" x1="419.3529411764706" x2="489.4117647058824" y1="617.3094117647058" y2="687.3682352941175" /><line stroke="#1e4080" stroke-opacity="0.4" stroke-width="0.7" x1="427.3529411764706" x2="497.4117647058824" y1="617.3094117647058" y2="687.3682352941175" /><line stroke="#1e4080" stroke-opacity="0.4" stroke-width="0.7" x1="435.3529411764706" x2="505.4117647058824" y1="617.3094117647058" y2="687.3682352941175" /><line stroke="#1e4080" stroke-opacity="0.4" stroke-width="0.7" x1="443.3529411764706" x2="513.4117647058824" y1="617.3094117647058" y2="687.3682352941175" /><line stroke="#1e4080" stroke-opacity="0.4" stroke-width="0.7" x1="451.3529411764706" x2="521.4117647058824" y1="617.3094117647058" y2="687.3682352941175" /><line stroke="#1e4080" stroke-opacity="0.4" stroke-width="0.7" x1="459.3529411764706" x2="529.4117647058824" y1="617.3094117647058" y2="687.3682352941175" /><line stroke="#1e4080" stroke-opacity="0.4" stroke-width="0.7" x1="467.3529411764706" x2="537.4117647058824" y1="617.3094117647058" y2="687.3682352941175" /><line stroke="#1e4080" stroke-opacity="0.4" stroke-width="0.7" x1="475.3529411764706" x2="545.4117647058824" y1="617.3094117647058" y2="687.3682352941175" /><line stroke="#1e4080" stroke-opacity="0.4" stroke-width="0.7" x1="483.3529411764706" x2="553.4117647058824" y1="617.3094117647058" y2="687.3682352941175" /><line stroke="#1e4080" stroke-opacity="0.4" stroke-width="0.7" x1="491.3529411764706" x2="561.4117647058824" y1="617.3094117647058" y2="687.3682352941175" /><line stroke="#1e4080" stroke-opacity="0.4" stroke-width="0.7" x1="499.3529411764706" x2="569.4117647058824" y1="617.3094117647058" y2="687.3682352941175" /><line stroke="#1e4080" stroke-opacity="0.4" stroke-width="0.7" x1="507.3529411764706" x2="577.4117647058824" y1="617.3094117647058" y2="687.3682352941175" /><line stroke="#1e4080" stroke-opacity="0.4" stroke-width="0.7" x1="515.3529411764706" x2="585.4117647058824" y1="617.3094117647058" y2="687.3682352941175" /><line stroke="#1e4080" stroke-opacity="0.4" stroke-width="0.7" x1="523.3529411764706" x2="593.4117647058824" y1="617.3094117647058" y2="687.3682352941175" /><line stroke="#1e4080" stroke-opacity="0.4" stroke-width="0.7" x1="531.3529411764706" x2="601.4117647058824" y1="617.3094117647058" y2="687.3682352941175" /><line stroke="#1e4080" stroke-opacity="0.4" stroke-width="0.7" x1="539.3529411764706" x2="609.4117647058824" y1="617.3094117647058" y2="687.3682352941175" /><line stroke="#1e4080" stroke-opacity="0.4" stroke-width="0.7" x1="547.3529411764706" x2="617.4117647058824" y1="617.3094117647058" y2="687.3682352941175" /><line stroke="#1e4080" stroke-opacity="0.4" stroke-width="0.7" x1="555.3529411764706" x2="625.4117647058824" y1="617.3094117647058" y2="687.3682352941175" /><line stroke="#1e4080" stroke-opacity="0.4" stroke-width="0.7" x1="563.3529411764706" x2="633.4117647058824" y1="617.3094117647058" y2="687.3682352941175" /><line stroke="#1e4080" stroke-opacity="0.4" stroke-width="0.7" x1="571.3529411764706" x2="641.4117647058824" y1="617.3094117647058" y2="687.3682352941175" /><line stroke="#1e4080" stroke-opacity="0.4" stroke-width="0.7" x1="579.3529411764706" x2="649.4117647058824" y1="617.3094117647058" y2="687.3682352941175" /></g><rect fill="none" height="70.05882352941177" stroke="#2563eb" stroke-dasharray="5,3" stroke-width="0.7" width="363.6470588235294" x="148.35294117647058" y="617.3094117647058" /><text fill="#94a3b8" font-family="Arial" font-size="9" font-style="italic" text-anchor="middle" x="330.17647058823525" y="655.3388235294117">Cable Duct / Gland Plate</text><rect fill="#0a1a2e" height="139.5176470588235" rx="8" stroke="#3b82f6" stroke-width="1.8" width="130.17647058823528" x="365.17647058823525" y="135" /><text fill="#60a5fa" font-family="Arial" font-size="13" font-weight="bold" text-anchor="middle" x="430.26470588235287" y="210.75882352941176">HMI / DISPLAY</text><text fill="#e2e8f0" font-family="Arial" font-size="12" font-weight="bold" text-anchor="middle" x="330.17647058823525" y="903.9999999999999">FRONT ELEVATION</text><rect fill="#08121f" height="93.41176470588235" stroke="#4a9eca" stroke-width="1.5" width="140.0" x="610.3529411764705" y="790.5882352941176" /><g clip-path="url(#cl_610_790_140)"><line stroke="#1e4080" stroke-opacity="0.4" stroke-width="0.7" x1="377.3529411764705" x2="470.7647058823528" y1="790.5882352941176" y2="883.9999999999999" /><line stroke="#1e4080" stroke-opacity="0.4" stroke-width="0.7" x1="389.3529411764705" x2="482.7647058823528" y1="790.5882352941176" y2="883.9999999999999" /><line stroke="#1e4080" stroke-opacity="0.4" stroke-width="0.7" x1="401.3529411764705" x2="494.7647058823528" y1="790.5882352941176" y2="883.9999999999999" /><line stroke="#1e4080" stroke-opacity="0.4" stroke-width="0.7" x1="413.3529411764705" x2="506.7647058823528" y1="790.5882352941176" y2="883.9999999999999" /><line stroke="#1e4080" stroke-opacity="0.4" stroke-width="0.7" x1="425.3529411764705" x2="518.7647058823528" y1="790.5882352941176" y2="883.9999999999999" /><line stroke="#1e4080" stroke-opacity="0.4" stroke-width="0.7" x1="437.3529411764705" x2="530.7647058823528" y1="790.5882352941176" y2="883.9999999999999" /><line stroke="#1e4080" stroke-opacity="0.4" stroke-width="0.7" x1="449.3529411764705" x2="542.7647058823528" y1="790.5882352941176" y2="883.9999999999999" /><line stroke="#1e4080" stroke-opacity="0.4" stroke-width="0.7" x1="461.3529411764705" x2="554.7647058823528" y1="790.5882352941176" y2="883.9999999999999" /><line stroke="#1e4080" stroke-opacity="0.4" stroke-width="0.7" x1="473.3529411764705" x2="566.7647058823528" y1="790.5882352941176" y2="883.9999999999999" /><line stroke="#1e4080" stroke-opacity="0.4" stroke-width="0.7" x1="485.3529411764705" x2="578.7647058823528" y1="790.5882352941176" y2="883.9999999999999" /><line stroke="#1e4080" stroke-opacity="0.4" stroke-width="0.7" x1="497.3529411764705" x2="590.7647058823528" y1="790.5882352941176" y2="883.9999999999999" /><line stroke="#1e4080" stroke-opacity="0.4" stroke-width="0.7" x1="509.3529411764705" x2="602.7647058823528" y1="790.5882352941176" y2="883.9999999999999" /><line stroke="#1e4080" stroke-opacity="0.4" stroke-width="0.7" x1="521.3529411764705" x2="614.7647058823528" y1="790.5882352941176" y2="883.9999999999999" /><line stroke="#1e4080" stroke-opacity="0.4" stroke-width="0.7" x1="533.3529411764705" x2="626.7647058823528" y1="790.5882352941176" y2="883.9999999999999" /><line stroke="#1e4080" stroke-opacity="0.4" stroke-width="0.7" x1="545.3529411764705" x2="638.7647058823528" y1="790.5882352941176" y2="883.9999999999999" /><line stroke="#1e4080" stroke-opacity="0.4" stroke-width="0.7" x1="557.3529411764705" x2="650.7647058823528" y1="790.5882352941176" y2="883.9999999999999" /><line stroke="#1e4080" stroke-opacity="0.4" stroke-width="0.7" x1="569.3529411764705" x2="662.7647058823528" y1="790.5882352941176" y2="883.9999999999999" /><line stroke="#1e4080" stroke-opacity="0.4" stroke-width="0.7" x1="581.3529411764705" x2="674.7647058823528" y1="790.5882352941176" y2="883.9999999999999" /><line stroke="#1e4080" stroke-opacity="0.4" stroke-width="0.7" x1="593.3529411764705" x2="686.7647058823528" y1="790.5882352941176" y2="883.9999999999999" /><line stroke="#1e4080" stroke-opacity="0.4" stroke-width="0.7" x1="605.3529411764705" x2="698.7647058823528" y1="790.5882352941176" y2="883.9999999999999" /><line stroke="#1e4080" stroke-opacity="0.4" stroke-width="0.7" x1="617.3529411764705" x2="710.7647058823528" y1="790.5882352941176" y2="883.9999999999999" /><line stroke="#1e4080" stroke-opacity="0.4" stroke-width="0.7" x1="629.3529411764705" x2="722.7647058823528" y1="790.5882352941176" y2="883.9999999999999" /><line stroke="#1e4080" stroke-opacity="0.4" stroke-width="0.7" x1="641.3529411764705" x2="734.7647058823528" y1="790.5882352941176" y2="883.9999999999999" /><line stroke="#1e4080" stroke-opacity="0.4" stroke-width="0.7" x1="653.3529411764705" x2="746.7647058823528" y1="790.5882352941176" y2="883.9999999999999" /><line stroke="#1e4080" stroke-opacity="0.4" stroke-width="0.7" x1="665.3529411764705" x2="758.7647058823528" y1="790.5882352941176" y2="883.9999999999999" /><line stroke="#1e4080" stroke-opacity="0.4" stroke-width="0.7" x1="677.3529411764705" x2="770.7647058823528" y1="790.5882352941176" y2="883.9999999999999" /><line stroke="#1e4080" stroke-opacity="0.4" stroke-width="0.7" x1="689.3529411764705" x2="782.7647058823528" y1="790.5882352941176" y2="883.9999999999999" /><line stroke="#1e4080" stroke-opacity="0.4" stroke-width="0.7" x1="701.3529411764705" x2="794.7647058823528" y1="790.5882352941176" y2="883.9999999999999" /><line stroke="#1e4080" stroke-opacity="0.4" stroke-width="0.7" x1="713.3529411764705" x2="806.7647058823528" y1="790.5882352941176" y2="883.9999999999999" /><line stroke="#1e4080" stroke-opacity="0.4" stroke-width="0.7" x1="725.3529411764705" x2="818.7647058823528" y1="790.5882352941176" y2="883.9999999999999" /><line stroke="#1e4080" stroke-opacity="0.4" stroke-width="0.7" x1="737.3529411764705" x2="830.7647058823528" y1="790.5882352941176" y2="883.9999999999999" /><line stroke="#1e4080" stroke-opacity="0.4" stroke-width="0.7" x1="749.3529411764705" x2="842.7647058823528" y1="790.5882352941176" y2="883.9999999999999" /><line stroke="#1e4080" stroke-opacity="0.4" stroke-width="0.7" x1="761.3529411764705" x2="854.7647058823528" y1="790.5882352941176" y2="883.9999999999999" /><line stroke="#1e4080" stroke-opacity="0.4" stroke-width="0.7" x1="773.3529411764705" x2="866.7647058823528" y1="790.5882352941176" y2="883.9999999999999" /><line stroke="#1e4080" stroke-opacity="0.4" stroke-width="0.7" x1="785.3529411764705" x2="878.7647058823528" y1="790.5882352941176" y2="883.9999999999999" /><line stroke="#1e4080" stroke-opacity="0.4" stroke-width="0.7" x1="797.3529411764705" x2="890.7647058823528" y1="790.5882352941176" y2="883.9999999999999" /><line stroke="#1e4080" stroke-opacity="0.4" stroke-width="0.7" x1="809.3529411764705" x2="902.7647058823528" y1="790.5882352941176" y2="883.9999999999999" /><line stroke="#1e4080" stroke-opacity="0.4" stroke-width="0.7" x1="821.3529411764705" x2="914.7647058823528" y1="790.5882352941176" y2="883.9999999999999" /><line stroke="#1e4080" stroke-opacity="0.4" stroke-width="0.7" x1="833.3529411764705" x2="926.7647058823528" y1="790.5882352941176" y2="883.9999999999999" /></g><rect fill="#1a2e4a" height="700.5882352941176" stroke="#4a9eca" stroke-width="2.5" width="140.0" x="610.3529411764705" y="90" /><rect fill="none" height="680.5882352941176" stroke="#2563eb" stroke-dasharray="8,5" stroke-width="0.9" width="120.0" x="620.3529411764705" y="100" /><text fill="#e2e8f0" font-family="Arial" font-size="12" font-weight="bold" text-anchor="middle" x="680.3529411764705" y="903.9999999999999">SIDE ELEVATION</text><line stroke="#f59e0b" stroke-dasharray="4,3" stroke-width="0.6" x1="120" x2="120" y1="85" y2="48" /><line stroke="#f59e0b" stroke-dasharray="4,3" stroke-width="0.6" x1="540.3529411764705" x2="540.3529411764705" y1="85" y2="48" /><line stroke="#f59e0b" stroke-width="1.3" x1="120" x2="540.3529411764705" y1="46" y2="46" /><line stroke="#f59e0b" stroke-width="1.3" x1="120" x2="120" y1="41" y2="51" /><polygon fill="#f59e0b" points="120,46 130,42 130,50" /><line stroke="#f59e0b" stroke-width="1.3" x1="540.3529411764705" x2="540.3529411764705" y1="41" y2="51" /><polygon fill="#f59e0b" points="540.3529411764705,46 530.3529411764705,42 530.3529411764705,50" /><text fill="#f59e0b" font-family="Arial" font-size="11" font-weight="bold" text-anchor="middle" x="330.17647058823525" y="32">900 mm</text><line stroke="#f59e0b" stroke-dasharray="4,3" stroke-width="0.6" x1="115" x2="62" y1="90" y2="90" /><line stroke="#f59e0b" stroke-dasharray="4,3" stroke-width="0.6" x1="115" x2="62" y1="790.5882352941176" y2="790.5882352941176" /><line stroke="#f59e0b" stroke-width="1.3" x1="60" x2="60" y1="90" y2="790.5882352941176" /><line stroke="#f59e0b" stroke-width="1.3" x1="55" x2="65" y1="90" y2="90" /><polygon fill="#f59e0b" points="60,90 56,100 64,100" /><line stroke="#f59e0b" stroke-width="1.3" x1="55" x2="65" y1="790.5882352941176" y2="790.5882352941176" /><polygon fill="#f59e0b" points="60,790.5882352941176 56,780.5882352941176 64,780.5882352941176" /><g transform="rotate(-90,42,440.2941176470588)"><text fill="#f59e0b" font-family="Arial" font-size="11" font-weight="bold" text-anchor="middle" x="42" y="444.2941176470588">1500 mm</text></g><line stroke="#f59e0b" stroke-dasharray="4,3" stroke-width="0.6" x1="115" x2="87" y1="790.5882352941176" y2="790.5882352941176" /><line stroke="#f59e0b" stroke-dasharray="4,3" stroke-width="0.6" x1="115" x2="87" y1="883.9999999999999" y2="883.9999999999999" /><line stroke="#f59e0b" stroke-width="1.3" x1="85" x2="85" y1="790.5882352941176" y2="883.9999999999999" /><line stroke="#f59e0b" stroke-width="1.3" x1="80" x2="90" y1="790.5882352941176" y2="790.5882352941176" /><polygon fill="#f59e0b" points="85,790.5882352941176 81,800.5882352941176 89,800.5882352941176" /><line stroke="#f59e0b" stroke-width="1.3" x1="80" x2="90" y1="883.9999999999999" y2="883.9999999999999" /><polygon fill="#f59e0b" points="85,883.9999999999999 81,873.9999999999999 89,873.9999999999999" /><g transform="rotate(-90,67,837.2941176470588)"><text fill="#f59e0b" font-family="Arial" font-size="11" font-weight="bold" text-anchor="middle" x="67" y="841.2941176470588">200 mm</text></g><line stroke="#f59e0b" stroke-dasharray="4,3" stroke-width="0.6" x1="610.3529411764705" x2="610.3529411764705" y1="85" y2="48" /><line stroke="#f59e0b" stroke-dasharray="4,3" stroke-width="0.6" x1="750.3529411764705" x2="750.3529411764705" y1="85" y2="48" /><line stroke="#f59e0b" stroke-width="1.3" x1="610.3529411764705" x2="750.3529411764705" y1="46" y2="46" /><line stroke="#f59e0b" stroke-width="1.3" x1="610.3529411764705" x2="610.3529411764705" y1="41" y2="51" /><polygon fill="#f59e0b" points="610.3529411764705,46 620.3529411764705,42 620.3529411764705,50" /><line stroke="#f59e0b" stroke-width="1.3" x1="750.3529411764705" x2="750.3529411764705" y1="41" y2="51" /><polygon fill="#f59e0b" points="750.3529411764705,46 740.3529411764705,42 740.3529411764705,50" /><text fill="#f59e0b" font-family="Arial" font-size="11" font-weight="bold" text-anchor="middle" x="680.3529411764705" y="32">400 mm</text><line stroke="#f59e0b" stroke-dasharray="4,3" stroke-width="0.6" x1="540.3529411764705" x2="550.3529411764705" y1="337.5411764705882" y2="337.5411764705882" /><line stroke="#f59e0b" stroke-dasharray="4,3" stroke-width="0.6" x1="540.3529411764705" x2="550.3529411764705" y1="430.9529411764705" y2="430.9529411764705" /><line stroke="#f59e0b" stroke-width="1.3" x1="552.3529411764705" x2="552.3529411764705" y1="337.5411764705882" y2="430.9529411764705" /><line stroke="#f59e0b" stroke-width="1.3" x1="547.3529411764705" x2="557.3529411764705" y1="337.5411764705882" y2="337.5411764705882" /><polygon fill="#f59e0b" points="552.3529411764705,337.5411764705882 548.3529411764705,347.5411764705882 556.3529411764705,347.5411764705882" /><line stroke="#f59e0b" stroke-width="1.3" x1="547.3529411764705" x2="557.3529411764705" y1="430.9529411764705" y2="430.9529411764705" /><polygon fill="#f59e0b" points="552.3529411764705,430.9529411764705 548.3529411764705,420.9529411764705 556.3529411764705,420.9529411764705" /><g transform="rotate(-90,570.3529411764705,384.24705882352936)"><text fill="#f59e0b" font-family="Arial" font-size="11" font-weight="bold" text-anchor="middle" x="570.3529411764705" y="388.24705882352936">BB: 200 mm</text></g><line stroke="#f59e0b" stroke-dasharray="4,3" stroke-width="0.6" x1="540.3529411764705" x2="570.3529411764705" y1="150.7176470588235" y2="150.7176470588235" /><line stroke="#f59e0b" stroke-dasharray="4,3" stroke-width="0.6" x1="540.3529411764705" x2="570.3529411764705" y1="309.5176470588235" y2="309.5176470588235" /><line stroke="#f59e0b" stroke-width="1.3" x1="572.3529411764705" x2="572.3529411764705" y1="150.7176470588235" y2="309.5176470588235" /><line stroke="#f59e0b" stroke-width="1.3" x1="567.3529411764705" x2="577.3529411764705" y1="150.7176470588235" y2="150.7176470588235" /><polygon fill="#f59e0b" points="572.3529411764705,150.7176470588235 568.3529411764705,160.7176470588235 576.3529411764705,160.7176470588235" /><line stroke="#f59e0b" stroke-width="1.3" x1="567.3529411764705" x2="577.3529411764705" y1="309.5176470588235" y2="309.5176470588235" /><polygon fill="#f59e0b" points="572.3529411764705,309.5176470588235 568.3529411764705,299.5176470588235 576.3529411764705,299.5176470588235" /><g transform="rotate(-90,590.3529411764705,230.1176470588235)"><text fill="#f59e0b" font-family="Arial" font-size="11" font-weight="bold" text-anchor="middle" x="590.3529411764705" y="234.1176470588235">I/C: 340 mm</text></g><rect fill="#0b1929" height="240" rx="4" stroke="#2dd4bf" stroke-width="1.8" width="345" x="1139" y="644" /><rect fill="#0d3a4a" height="26" rx="4" stroke="none" width="345" x="1139" y="644" /><line stroke="#2dd4bf" stroke-width="0.8" x1="1139" x2="1484" y1="670" y2="670" /><text fill="#2dd4bf" font-family="Arial" font-size="11" font-weight="bold" text-anchor="middle" x="1311.5" y="662.0">PANEL GA DRAWING — SPECIFICATIONS</text><line stroke="#1e3a5f" stroke-width="0.4" x1="1139" x2="1484" y1="670.0" y2="670.0" /><line stroke="#1e3a5f" stroke-width="0.4" x1="1309" x2="1309" y1="670.0" y2="687.8333333333334" /><text fill="#94a3b8" font-family="Arial" font-size="8.5" x="1145" y="682.4166666666666">Panel Size  W × H × D</text><text fill="#e2e8f0" font-family="Arial" font-size="8.5" font-weight="bold" text-anchor="end" x="1478" y="682.4166666666666">900 × 1500 × 400 mm</text><rect fill="#0b2035" height="17.833333333333332" width="343" x="1140" y="687.8333333333334" /><line stroke="#1e3a5f" stroke-width="0.4" x1="1139" x2="1484" y1="687.8333333333334" y2="687.8333333333334" /><line stroke="#1e3a5f" stroke-width="0.4" x1="1309" x2="1309" y1="687.8333333333334" y2="705.6666666666667" /><text fill="#94a3b8" font-family="Arial" font-size="8.5" x="1145" y="700.25">Mounting Plate  W × H</text><text fill="#e2e8f0" font-family="Arial" font-size="8.5" font-weight="bold" text-anchor="end" x="1478" y="700.25">800 × 1400 mm</text><line stroke="#1e3a5f" stroke-width="0.4" x1="1139" x2="1484" y1="705.6666666666666" y2="705.6666666666666" /><line stroke="#1e3a5f" stroke-width="0.4" x1="1309" x2="1309" y1="705.6666666666666" y2="723.5" /><text fill="#94a3b8" font-family="Arial" font-size="8.5" x="1145" y="718.0833333333333">Plinth Height</text><text fill="#e2e8f0" font-family="Arial" font-size="8.5" font-weight="bold" text-anchor="end" x="1478" y="718.0833333333333">200 mm</text><rect fill="#0b2035" height="17.833333333333332" width="343" x="1140" y="723.5" /><line stroke="#1e3a5f" stroke-width="0.4" x1="1139" x2="1484" y1="723.5" y2="723.5" /><line stroke="#1e3a5f" stroke-width="0.4" x1="1309" x2="1309" y1="723.5" y2="741.3333333333334" /><text fill="#94a3b8" font-family="Arial" font-size="8.5" x="1145" y="735.9166666666666">Panel Colour</text><text fill="#e2e8f0" font-family="Arial" font-size="8.5" font-weight="bold" text-anchor="end" x="1478" y="735.9166666666666">RAL 7035 (Light Grey)</text><line stroke="#1e3a5f" stroke-width="0.4" x1="1139" x2="1484" y1="741.3333333333334" y2="741.3333333333334" /><line stroke="#1e3a5f" stroke-width="0.4" x1="1309" x2="1309" y1="741.3333333333334" y2="759.1666666666667" /><text fill="#94a3b8" font-family="Arial" font-size="8.5" x="1145" y="753.75">Mounting Plate Finish</text><text fill="#e2e8f0" font-family="Arial" font-size="8.5" font-weight="bold" text-anchor="end" x="1478" y="753.75">Chrome Plating / Zinc Passivated</text><rect fill="#0b2035" height="17.833333333333332" width="343" x="1140" y="759.1666666666666" /><line stroke="#1e3a5f" stroke-width="0.4" x1="1139" x2="1484" y1="759.1666666666666" y2="759.1666666666666" /><line stroke="#1e3a5f" stroke-width="0.4" x1="1309" x2="1309" y1="759.1666666666666" y2="777.0" /><text fill="#94a3b8" font-family="Arial" font-size="8.5" x="1145" y="771.5833333333333">Busbar Chamber Height</text><text fill="#e2e8f0" font-family="Arial" font-size="8.5" font-weight="bold" text-anchor="end" x="1478" y="771.5833333333333">200 mm  (IEC 61439)</text><line stroke="#1e3a5f" stroke-width="0.4" x1="1139" x2="1484" y1="777.0" y2="777.0" /><line stroke="#1e3a5f" stroke-width="0.4" x1="1309" x2="1309" y1="777.0" y2="794.8333333333334" /><text fill="#94a3b8" font-family="Arial" font-size="8.5" x="1145" y="789.4166666666666">Busbar Thickness</text><text fill="#e2e8f0" font-family="Arial" font-size="8.5" font-weight="bold" text-anchor="end" x="1478" y="789.4166666666666">12 mm</text><rect fill="#0b2035" height="17.833333333333332" width="343" x="1140" y="794.8333333333334" /><line stroke="#1e3a5f" stroke-width="0.4" x1="1139" x2="1484" y1="794.8333333333334" y2="794.8333333333334" /><line stroke="#1e3a5f" stroke-width="0.4" x1="1309" x2="1309" y1="794.8333333333334" y2="812.6666666666667" /><text fill="#94a3b8" font-family="Arial" font-size="8.5" x="1145" y="807.25">Aluminium Busbar</text><text fill="#e2e8f0" font-family="Arial" font-size="8.5" font-weight="bold" text-anchor="end" x="1478" y="807.25">1 Set (110 x 20 mm Aluminium)</text><line stroke="#1e3a5f" stroke-width="0.4" x1="1139" x2="1484" y1="812.6666666666666" y2="812.6666666666666" /><line stroke="#1e3a5f" stroke-width="0.4" x1="1309" x2="1309" y1="812.6666666666666" y2="830.5" /><text fill="#94a3b8" font-family="Arial" font-size="8.5" x="1145" y="825.0833333333333">Total Busbar Current</text><text fill="#e2e8f0" font-family="Arial" font-size="8.5" font-weight="bold" text-anchor="end" x="1478" y="825.0833333333333">1078.2 A</text><rect fill="#0b2035" height="17.833333333333332" width="343" x="1140" y="830.5" /><line stroke="#1e3a5f" stroke-width="0.4" x1="1139" x2="1484" y1="830.5" y2="830.5" /><line stroke="#1e3a5f" stroke-width="0.4" x1="1309" x2="1309" y1="830.5" y2="848.3333333333334" /><text fill="#94a3b8" font-family="Arial" font-size="8.5" x="1145" y="842.9166666666666">Incomers / Outgoing</text><text fill="#e2e8f0" font-family="Arial" font-size="8.5" font-weight="bold" text-anchor="end" x="1478" y="842.9166666666666">4 / 3</text><line stroke="#1e3a5f" stroke-width="0.4" x1="1139" x2="1484" y1="848.3333333333333" y2="848.3333333333333" /><line stroke="#1e3a5f" stroke-width="0.4" x1="1309" x2="1309" y1="848.3333333333333" y2="866.1666666666666" /><text fill="#94a3b8" font-family="Arial" font-size="8.5" x="1145" y="860.7499999999999">Phase–Phase Clearance</text><text fill="#e2e8f0" font-family="Arial" font-size="8.5" font-weight="bold" text-anchor="end" x="1478" y="860.7499999999999">≥ 25 mm</text><rect fill="#0b2035" height="17.833333333333332" width="343" x="1140" y="866.1666666666666" /><line stroke="#1e3a5f" stroke-width="0.4" x1="1139" x2="1484" y1="866.1666666666666" y2="866.1666666666666" /><line stroke="#1e3a5f" stroke-width="0.4" x1="1309" x2="1309" y1="866.1666666666666" y2="884.0" /><text fill="#94a3b8" font-family="Arial" font-size="8.5" x="1145" y="878.5833333333333">Phase–Earth Clearance</text><text fill="#e2e8f0" font-family="Arial" font-size="8.5" font-weight="bold" text-anchor="end" x="1478" y="878.5833333333333">≥ 20 mm</text><rect fill="none" height="240" rx="4" stroke="#2dd4bf" stroke-width="1.8" width="345" x="1139" y="644" /><rect fill="#060d1a" height="46" stroke="#1e3a5f" stroke-width="1" width="1127" x="0" y="894" /><text fill="#2dd4bf" font-family="Arial" font-size="13" font-weight="bold" x="18" y="922.0">MICROGRID PANEL  —  GENERAL ARRANGEMENT (GA)</text><text fill="#94a3b8" font-family="Arial" font-size="9" text-anchor="end" x="1110" y="922.0">Date: 18-Apr-2026  |  Scale: NTS  |  IEC 61439 compliant</text></svg>