<svg baseProfile="full" height="850px" version="1.1" width="1450px" xmlns="http://www.w3.org/2000/svg" xmlns:ev="http://www.w3.org/2001/xml-events" xmlns:xlink="http://www.w3.org/1999/xlink"><defs /><rect fill="#020617" height="820" rx="15" stroke="#334155" stroke-width="2" width="1420" x="15" y="15" /><line stroke="#475569" stroke-dasharray="8,4" stroke-width="1" x1="30" x2="1420" y1="380" y2="380" /><text fill="#94a3b8" font-size="20" font-weight="bold" text-anchor="middle" x="725.0" y="50">CUSTOMER SCOPE</text><text fill="#94a3b8" font-size="20" font-weight="bold" x="50" y="800">KIRLOSKAR SCOPE</text><text fill="#6366f1" font-size="18" x="1230" y="800">Smart AMF Panel</text><text fill="white" font-size="16" font-weight="bold" text-anchor="middle" x="220" y="95">250 kVA</text><circle cx="220" cy="180" fill="none" r="45" stroke="#60a5fa" stroke-width="2.5" /><text fill="white" font-size="15" text-anchor="middle" x="220" y="187">DG 1</text><line stroke="white" stroke-width="2" x1="220" x2="220" y1="225" y2="280" /><rect fill="#1e293b" height="40" rx="5" stroke="#60a5fa" width="130" x="155" y="280" /><text fill="white" font-size="12" text-anchor="middle" x="220" y="305">Synch Controller</text><line stroke="white" stroke-width="2" x1="220" x2="220" y1="320" y2="420" /><line stroke="white" stroke-width="2" x1="220" x2="220" y1="430" y2="462" /><line stroke="white" stroke-width="2" x1="220" x2="220" y1="492" y2="530" /><path d="M220,462 A14,14 0 0,0 222,492" fill="none" stroke="#10b981" stroke-width="2.5" /><text fill="#e2e8f0" font-family="Arial" font-size="12" text-anchor="end" x="195" y="475">500A, 4P</text><text fill="#94a3b8" font-family="Arial" font-size="11" text-anchor="end" x="195" y="492">Motorised MCCB</text><text fill="#f1f5f9" font-family="Arial" font-size="14" font-weight="bold" text-anchor="start" x="255" y="485">I/C 1</text><line stroke="white" stroke-width="2" x1="220" x2="220" y1="530" y2="600" /><text fill="white" font-size="16" font-weight="bold" text-anchor="middle" x="500" y="95">250 kVA</text><circle cx="500" cy="180" fill="none" r="45" stroke="#60a5fa" stroke-width="2.5" /><text fill="white" font-size="15" text-anchor="middle" x="500" y="187">DG 2</text><line stroke="white" stroke-width="2" x1="500" x2="500" y1="225" y2="280" /><rect fill="#1e293b" height="40" rx="5" stroke="#60a5fa" width="130" x="435" y="280" /><text fill="white" font-size="12" text-anchor="middle" x="500" y="305">Synch Controller</text><line stroke="white" stroke-width="2" x1="500" x2="500" y1="320" y2="420" /><line stroke="white" stroke-width="2" x1="500" x2="500" y1="430" y2="462" /><line stroke="white" stroke-width="2" x1="500" x2="500" y1="492" y2="530" /><path d="M500,462 A14,14 0 0,0 502,492" fill="none" stroke="#10b981" stroke-width="2.5" /><text fill="#e2e8f0" font-family="Arial" font-size="12" text-anchor="end" x="475" y="475">500A, 4P</text><text fill="#94a3b8" font-family="Arial" font-size="11" text-anchor="end" x="475" y="492">Motorised MCCB</text><text fill="#f1f5f9" font-family="Arial" font-size="14" font-weight="bold" text-anchor="start" x="535" y="485">I/C 2</text><line stroke="white" stroke-width="2" x1="500" x2="500" y1="530" y2="600" /><text fill="white" font-size="16" font-weight="bold" text-anchor="middle" x="780" y="95">120 kW</text><line stroke="white" stroke-width="2" x1="780" x2="765" y1="150" y2="210" /><line stroke="white" stroke-width="2" x1="780" x2="795" y1="150" y2="210" /><line stroke="white" stroke-width="2" x1="765" x2="795" y1="210" y2="210" /><line stroke="white" stroke-width="1.5" x1="770" x2="790" y1="175" y2="175" /><line stroke="white" stroke-width="1.5" x1="768" x2="792" y1="195" y2="195" /><line stroke="white" stroke-width="2" x1="780" x2="780" y1="210" y2="420" /><line stroke="white" stroke-width="2" x1="780" x2="780" y1="430" y2="462" /><line stroke="white" stroke-width="2" x1="780" x2="780" y1="492" y2="530" /><path d="M780,462 A14,14 0 0,0 782,492" fill="none" stroke="#10b981" stroke-width="2.5" /><text fill="#e2e8f0" font-family="Arial" font-size="12" text-anchor="end" x="755" y="475">315A, 4P</text><text fill="#94a3b8" font-family="Arial" font-size="11" text-anchor="end" x="755" y="492">Motorised MCCB</text><text fill="#f1f5f9" font-family="Arial" font-size="14" font-weight="bold" text-anchor="start" x="815" y="485">I/C 3</text><line stroke="white" stroke-width="2" x1="780" x2="780" y1="530" y2="600" /><text fill="white" font-size="16" font-weight="bold" text-anchor="middle" x="1060" y="95">100 kWp</text><rect fill="#1e293b" height="45" stroke="white" stroke-width="1.5" width="40" x="1040" y="160" /><line stroke="white" stroke-opacity="0.5" x1="1040" x2="1080" y1="171" y2="171" /><line stroke="white" stroke-opacity="0.5" x1="1050" x2="1050" y1="160" y2="205" /><line stroke="white" stroke-opacity="0.5" x1="1040" x2="1080" y1="182" y2="182" /><line stroke="white" stroke-opacity="0.5" x1="1060" x2="1060" y1="160" y2="205" /><line stroke="white" stroke-opacity="0.5" x1="1040" x2="1080" y1="193" y2="193" /><line stroke="white" stroke-opacity="0.5" x1="1070" x2="1070" y1="160" y2="205" /><circle cx="1030" cy="145" fill="none" r="8" stroke="#fbbf24" stroke-width="2" /><line stroke="white" stroke-width="2" x1="1060" x2="1060" y1="205" y2="420" /><line stroke="white" stroke-width="2" x1="1060" x2="1060" y1="430" y2="462" /><line stroke="white" stroke-width="2" x1="1060" x2="1060" y1="492" y2="530" /><path d="M1060,462 A14,14 0 0,0 1062,492" fill="none" stroke="#10b981" stroke-width="2.5" /><text fill="#e2e8f0" font-family="Arial" font-size="12" text-anchor="end" x="1035" y="475">250A, 4P</text><text fill="#94a3b8" font-family="Arial" font-size="11" text-anchor="end" x="1035" y="492">Motorised MCCB</text><text fill="#f1f5f9" font-family="Arial" font-size="14" font-weight="bold" text-anchor="start" x="1095" y="485">I/C 4</text><line stroke="white" stroke-width="2" x1="1060" x2="1060" y1="530" y2="600" /><line stroke="#ef4444" stroke-width="7" x1="100" x2="1350" y1="600" y2="600" /><text fill="#f87171" font-size="12" x="110" y="590">MAIN BUSBAR</text><rect fill="#1e1b4b" height="100" rx="10" stroke="#a78bfa" stroke-width="3" width="100" x="1290" y="390" /><line stroke="#a78bfa" stroke-width="2" x1="1308" x2="1308" y1="380" y2="390" /><line stroke="#a78bfa" stroke-width="2" x1="1308" x2="1308" y1="490" y2="500" /><line stroke="#a78bfa" stroke-width="2" x1="1280" x2="1290" y1="408" y2="408" /><line stroke="#a78bfa" stroke-width="2" x1="1390" x2="1400" y1="408" y2="408" /><line stroke="#a78bfa" stroke-width="2" x1="1324" x2="1324" y1="380" y2="390" /><line stroke="#a78bfa" stroke-width="2" x1="1324" x2="1324" y1="490" y2="500" /><line stroke="#a78bfa" stroke-width="2" x1="1280" x2="1290" y1="424" y2="424" /><line stroke="#a78bfa" stroke-width="2" x1="1390" x2="1400" y1="424" y2="424" /><line stroke="#a78bfa" stroke-width="2" x1="1340" x2="1340" y1="380" y2="390" /><line stroke="#a78bfa" stroke-width="2" x1="1340" x2="1340" y1="490" y2="500" /><line stroke="#a78bfa" stroke-width="2" x1="1280" x2="1290" y1="440" y2="440" /><line stroke="#a78bfa" stroke-width="2" x1="1390" x2="1400" y1="440" y2="440" /><line stroke="#a78bfa" stroke-width="2" x1="1356" x2="1356" y1="380" y2="390" /><line stroke="#a78bfa" stroke-width="2" x1="1356" x2="1356" y1="490" y2="500" /><line stroke="#a78bfa" stroke-width="2" x1="1280" x2="1290" y1="456" y2="456" /><line stroke="#a78bfa" stroke-width="2" x1="1390" x2="1400" y1="456" y2="456" /><line stroke="#a78bfa" stroke-width="2" x1="1372" x2="1372" y1="380" y2="390" /><line stroke="#a78bfa" stroke-width="2" x1="1372" x2="1372" y1="490" y2="500" /><line stroke="#a78bfa" stroke-width="2" x1="1280" x2="1290" y1="472" y2="472" /><line stroke="#a78bfa" stroke-width="2" x1="1390" x2="1400" y1="472" y2="472" /><text fill="white" font-size="20" font-weight="bold" text-anchor="middle" x="1340.0" y="448.0">MGC</text><text fill="#cbd5e1" font-size="13" text-anchor="end" x="1275" y="420">Auto / Manual</text><line stroke="#a78bfa" stroke-dasharray="6,3" stroke-width="1.2" x1="220" x2="1290" y1="360" y2="360" /><text fill="#c4b5fd" font-size="13" text-anchor="middle" x="725.0" y="348">Communication and Control Lines</text><line stroke="#a78bfa" stroke-dasharray="4,2" stroke-width="1" x1="220" x2="220" y1="360" y2="420" /><line stroke="#a78bfa" stroke-dasharray="4,2" stroke-width="1" x1="500" x2="500" y1="360" y2="420" /><line stroke="#a78bfa" stroke-dasharray="4,2" stroke-width="1" x1="780" x2="780" y1="360" y2="420" /><line stroke="#a78bfa" stroke-dasharray="4,2" stroke-width="1" x1="1060" x2="1060" y1="360" y2="420" /><line stroke="#a78bfa" stroke-dasharray="6,3" stroke-width="1" x1="1290" x2="1290" y1="360" y2="415" /><line stroke="white" stroke-width="2" x1="280" x2="280" y1="600" y2="640" /><line stroke="white" stroke-width="2" x1="280" x2="280" y1="650" y2="682" /><line stroke="white" stroke-width="2" x1="280" x2="280" y1="712" y2="750" /><path d="M280,682 A14,14 0 0,0 282,712" fill="none" stroke="#10b981" stroke-width="2.5" /><text fill="#e2e8f0" font-family="Arial" font-size="12" text-anchor="start" x="305" y="695">400A, 4P</text><text fill="#94a3b8" font-family="Arial" font-size="11" text-anchor="start" x="305" y="712">Motorised MCCB</text><text fill="#f1f5f9" font-family="Arial" font-size="14" font-weight="bold" text-anchor="end" x="245" y="705">O/G 1</text><line stroke="white" stroke-width="2" x1="280" x2="280" y1="750" y2="750" /><line stroke="white" stroke-width="2" x1="580" x2="580" y1="600" y2="640" /><line stroke="white" stroke-width="2" x1="580" x2="580" y1="650" y2="682" /><line stroke="white" stroke-width="2" x1="580" x2="580" y1="712" y2="750" /><path d="M580,682 A14,14 0 0,0 582,712" fill="none" stroke="#10b981" stroke-width="2.5" /><text fill="#e2e8f0" font-family="Arial" font-size="12" text-anchor="start" x="605" y="695">400A, 4P</text><text fill="#94a3b8" font-family="Arial" font-size="11" text-anchor="start" x="605" y="712">Motorised MCCB</text><text fill="#f1f5f9" font-family="Arial" font-size="14" font-weight="bold" text-anchor="end" x="545" y="705">O/G 2</text><line stroke="white" stroke-width="2" x1="580" x2="580" y1="750" y2="750" /><line stroke="white" stroke-width="2" x1="880" x2="880" y1="600" y2="640" /><line stroke="white" stroke-width="2" x1="880" x2="880" y1="650" y2="682" /><line stroke="white" stroke-width="2" x1="880" x2="880" y1="712" y2="750" /><path d="M880,682 A14,14 0 0,0 882,712" fill="none" stroke="#10b981" stroke-width="2.5" /><text fill="#e2e8f0" font-family="Arial" font-size="12" text-anchor="start" x="905" y="695">250A, 4P</text><text fill="#94a3b8" font-family="Arial" font-size="11" text-anchor="start" x="905" y="712">Motorised MCCB</text><text fill="#f1f5f9" font-family="Arial" font-size="14" font-weight="bold" text-anchor="end" x="845" y="705">O/G 3</text><line stroke="white" stroke-width="2" x1="880" x2="880" y1="750" y2="750" /></svg>