<svg baseProfile="full" height="800" version="1.1" viewBox="0,0,1250,800" width="1250" xmlns="http://www.w3.org/2000/svg" xmlns:ev="http://www.w3.org/2001/xml-events" xmlns:xlink="http://www.w3.org/1999/xlink"><defs /><rect fill="#020617" height="800" width="1250" x="0" y="0" /><rect fill="#1e293b" height="576" stroke="#475569" stroke-width="1.5" width="128" x="80" y="120" /><rect fill="#0f172a" height="96" stroke="#475569" width="128" x="80" y="696" /><text fill="#f1f5f9" font-size="12" font-weight="bold" text-anchor="middle" x="144.0" y="822">LH SIDE</text><rect fill="none" height="576" stroke="#64748b" stroke-width="2.5" width="576" x="308" y="120" /><rect fill="#0f172a" height="96" stroke="#64748b" width="576" x="308" y="696" /><rect fill="#1e293b" height="544" stroke="#334155" stroke-dasharray="5,3" width="544" x="324.0" y="136.0" /><text fill="#2dd4bf" font-size="14" font-weight="bold" text-anchor="middle" x="596.0" y="100">MOUNTING PLATE (INTERNAL)</text><rect fill="#b91c1c" height="25" rx="2" stroke="#ef4444" width="504" x="344.0" y="166.0" /><text fill="white" font-size="11" font-weight="bold" text-anchor="middle" x="596.0" y="183.5">MAIN BUSBAR: Aluminium - 696A</text><rect fill="#0d9488" height="51.52" rx="3" stroke="#5eead4" width="33.6" x="364.0" y="226.0" /><text fill="white" font-size="9" text-anchor="middle" x="380.8" y="249.76">I/C 1</text><text fill="#ccfbf1" font-size="8" text-anchor="middle" x="380.8" y="261.76">250A</text><rect fill="#0d9488" height="81.60000000000001" rx="3" stroke="#5eead4" width="44.800000000000004" x="427.6" y="226.0" /><text fill="white" font-size="9" text-anchor="middle" x="450.0" y="264.8">I/C 2</text><text fill="#ccfbf1" font-size="8" text-anchor="middle" x="450.0" y="276.8">400A</text><rect fill="#0d9488" height="81.60000000000001" rx="3" stroke="#5eead4" width="44.800000000000004" x="502.40000000000003" y="226.0" /><text fill="white" font-size="9" text-anchor="middle" x="524.8000000000001" y="264.8">I/C 3</text><text fill="#ccfbf1" font-size="8" text-anchor="middle" x="524.8000000000001" y="276.8">400A</text><rect fill="#b45309" height="81.60000000000001" rx="3" stroke="#fbbf24" width="44.800000000000004" x="364.0" y="416.0" /><text fill="white" font-size="9" text-anchor="middle" x="386.4" y="454.8">O/G 1</text><text fill="#fef3c7" font-size="8" text-anchor="middle" x="386.4" y="466.8">400A</text><rect fill="#b45309" height="81.60000000000001" rx="3" stroke="#fbbf24" width="44.800000000000004" x="438.8" y="416.0" /><text fill="white" font-size="9" text-anchor="middle" x="461.2" y="454.8">O/G 2</text><text fill="#fef3c7" font-size="8" text-anchor="middle" x="461.2" y="466.8">400A</text><rect fill="#1e293b" height="576" stroke="#475569" stroke-width="1.5" width="128" x="984" y="120" /><rect fill="#0f172a" height="96" stroke="#475569" width="128" x="984" y="696" /><text fill="#f1f5f9" font-size="12" font-weight="bold" text-anchor="middle" x="1048.0" y="822">RH SIDE</text><line stroke="#94a3b8" stroke-width="0.8" x1="308" x2="884" y1="60" y2="60" /><line stroke="#94a3b8" stroke-width="0.8" x1="308" x2="308" y1="55" y2="65" /><line stroke="#94a3b8" stroke-width="0.8" x1="884" x2="884" y1="55" y2="65" /><text fill="#f59e0b" font-size="10" text-anchor="middle" x="596.0" y="52">1800mm</text><rect fill="#0f172a" height="100" rx="5" stroke="#2dd4bf" width="500" x="375.0" y="680" /><text fill="#2dd4bf" font-size="16" font-weight="bold" text-anchor="middle" x="625.0" y="710">INTERNAL GENERAL ARRANGEMENT (GA)</text><text fill="#94a3b8" font-size="12" text-anchor="middle" x="625.0" y="740">Ref: 1800W × 1800H × 400D mm | Aluminium Busbar</text><text fill="#64748b" font-size="10" font-style="italic" text-anchor="middle" x="625.0" y="765">All Dimensions are from MCCB Database</text></svg>